<svg id="Layer_1" data-name="Layer 1" xmlns="http://www.w3.org/2000/svg" viewBox="0 0 1310.4 288"><defs><style>.cls-1{fill:#349946;}</style></defs><path class="cls-1" d="M108.51,153.89A22.62,22.62,0,1,1,86,131.37,22.58,22.58,0,0,1,108.51,153.89Z"/><path class="cls-1" d="M144,.06A144,144,0,1,0,288,144,144,144,0,0,0,144,.06ZM86,200a46.13,46.13,0,1,1,46.12-46.13A46.24,46.24,0,0,1,86,200Zm103.88-70.44H162.51v34.33a10.86,10.86,0,0,0,11.09,11.26h15.55v23.42H172.88c-20.74,0-33.79-11.8-33.79-34.86v-83h23.42V109.2h27.36Zm47.2,1.79c-8.59,0-15.38,6.07-15.38,14.66v52.56H198.45V109.2h18.41v5.9c5-4.12,11.45-5.9,18.6-5.9h12.69v22.17Z"/><path class="cls-1" d="M357.81,194.81v41.3H334.57V111h19.48v7.69a43.42,43.42,0,0,1,26.47-9.12,46.13,46.13,0,0,1,0,92.25A40.62,40.62,0,0,1,357.81,194.81Zm-.18-39.15a22.53,22.53,0,1,0,22.53-22.53A22.78,22.78,0,0,0,357.63,155.66Z"/><path class="cls-1" d="M455.07,163a25.21,25.21,0,0,0,24,16.8c10,0,18.42-4.83,24.14-9.65l13.76,16.62c-12.69,11.09-26.64,15-38.26,15-27.17,0-47.55-21.45-47.55-47,0-25.39,20.2-45.23,45.94-45.23,26.11,0,45.59,20.74,45.59,53.46Zm42.2-17.88c-1.79-8.76-9.66-16.27-20.74-16.27-10.73,0-19.49,6.79-21.28,16.27Z"/><path class="cls-1" d="M579.15,133.13H568.07c-8.58,0-15.38,6.08-15.38,14.66v52.56H529.45V111h18.41v5.9c5-4.11,11.45-5.9,18.6-5.9h12.69Z"/><path class="cls-1" d="M610.44,107.56V111H636v20.38H610.44l-.18,69H587.2V108.63c0-21.81,14.48-33.43,34.68-33.43H636V96.3H621.88A11.37,11.37,0,0,0,610.44,107.56Z"/><path class="cls-1" d="M728.62,155.66a46.13,46.13,0,1,1-46.13-46.13A46.24,46.24,0,0,1,728.62,155.66Zm-68.83,0a22.62,22.62,0,1,0,45.23,0,22.62,22.62,0,0,0-45.23,0Z"/><path class="cls-1" d="M785.3,133.13H774.21c-8.58,0-15.37,6.08-15.37,14.66v52.56H735.6V111H754v5.9c5-4.11,11.44-5.9,18.6-5.9H785.3Z"/><path class="cls-1" d="M847.7,148.15a15.38,15.38,0,1,0-30.75,0v52.2H793.7V111h18.6v6.26a33.61,33.61,0,0,1,21.45-7.69c10.37,0,19,4.47,25.57,11.44a38.34,38.34,0,0,1,27.35-11.44,38.8,38.8,0,0,1,38.62,38.62v52.2h-23.6v-52.2a15.29,15.29,0,1,0-30.57,0v52.2H847.7Z"/><path class="cls-1" d="M1022.91,200.35h-19.66v-7.69a43.39,43.39,0,0,1-26.46,9.12,46.13,46.13,0,1,1,0-92.25,42.22,42.22,0,0,1,26.28,9.12V111h19.84Zm-23.06-44.87a22.53,22.53,0,1,0-22.53,22.88A22.43,22.43,0,0,0,999.85,155.48Z"/><path class="cls-1" d="M1109.63,148.15v52.2h-23.24v-52.2a15.47,15.47,0,0,0-30.93,0v52.2h-23.25V111h18.6v5.9a36.23,36.23,0,0,1,21.63-7.33C1093.36,109.53,1109.63,126.87,1109.63,148.15Z"/><path class="cls-1" d="M1161.3,201.78c-25,0-45.59-20.74-45.59-46.12a45.93,45.93,0,0,1,45.77-46.13c13,0,24.49,5.54,34,15.2l-14.66,16.62c-6.08-5.9-12.88-8.58-19.13-8.58a22.62,22.62,0,0,0,0,45.23c6.25,0,13.23-2.68,19.31-9.11l14.48,17.16C1186,195.17,1175.24,201.78,1161.3,201.78Z"/><path class="cls-1" d="M1220.48,163a25.2,25.2,0,0,0,24,16.8c10,0,18.41-4.83,24.13-9.65l13.77,16.62c-12.69,11.09-26.64,15-38.26,15-27.17,0-47.56-21.45-47.56-47,0-25.39,20.21-45.23,46-45.23,26.1,0,45.59,20.74,45.59,53.46Zm42.19-17.88c-1.78-8.76-9.65-16.27-20.73-16.27-10.73,0-19.49,6.79-21.28,16.27Z"/><path class="cls-1" d="M1278.43,103a10.37,10.37,0,1,1,10.37,10.27A10.17,10.17,0,0,1,1278.43,103Zm17.93,0a7.55,7.55,0,1,0-7.56,7.66A7.44,7.44,0,0,0,1296.36,103Zm-11.62,4.59V98.18h4.93c2.1,0,3.51,1.22,3.51,3a2.75,2.75,0,0,1-2,2.83l2.49,3.59h-3l-2.06-3.22h-1.34v3.22Zm2.51-5h1.85c.9,0,1.43-.43,1.43-1.21s-.49-1.18-1.39-1.18h-1.89Z"/></svg>