<svg xmlns="http://www.w3.org/2000/svg" viewBox="0 0 1296 288"><g style="isolation:isolate"><g id="Layer_1" data-name="Layer 1"><path d="M108.51,153.89A22.62,22.62,0,1,1,86,131.37,22.58,22.58,0,0,1,108.51,153.89Z" style="fill:#349946"/><path d="M144,.06A144,144,0,1,0,288,144,144,144,0,0,0,144,.06ZM86,200a46.13,46.13,0,1,1,46.12-46.13A46.24,46.24,0,0,1,86,200Zm103.88-70.44H162.51v34.33a10.86,10.86,0,0,0,11.09,11.26h15.55v23.42H172.88c-20.74,0-33.79-11.8-33.79-34.86v-83h23.42V109.2h27.36Zm47.2,1.79c-8.59,0-15.38,6.07-15.38,14.66v52.56H198.45V109.2h18.41v5.9c5-4.12,11.45-5.9,18.6-5.9h12.69v22.17Z" style="fill:#349946"/><path d="M357.81,194.81v41.3H334.57V111h19.48v7.69a43.42,43.42,0,0,1,26.47-9.12,46.13,46.13,0,0,1,0,92.25A40.62,40.62,0,0,1,357.81,194.81Zm-.18-39.15a22.53,22.53,0,1,0,22.53-22.53A22.78,22.78,0,0,0,357.63,155.66Z" style="fill:#349946"/><path d="M455.07,163a25.21,25.21,0,0,0,24,16.8c10,0,18.42-4.83,24.14-9.65l13.76,16.62c-12.69,11.09-26.64,15-38.26,15-27.17,0-47.55-21.45-47.55-47,0-25.39,20.2-45.23,45.94-45.23,26.11,0,45.59,20.74,45.59,53.46Zm42.2-17.88c-1.79-8.76-9.66-16.27-20.74-16.27-10.73,0-19.49,6.79-21.28,16.27Z" style="fill:#349946"/><path d="M579.15,133.13H568.07c-8.58,0-15.38,6.08-15.38,14.66v52.56H529.45V111h18.41v5.9c5-4.11,11.45-5.9,18.6-5.9h12.69Z" style="fill:#349946"/><path d="M610.44,107.56V111H636v20.38H610.44l-.18,69H587.2V108.63c0-21.81,14.48-33.43,34.68-33.43H636V96.3H621.88A11.37,11.37,0,0,0,610.44,107.56Z" style="fill:#349946"/><path d="M785.3,133.13H774.21c-8.58,0-15.37,6.08-15.37,14.66v52.56H735.6V111H754v5.9c5-4.11,11.44-5.9,18.6-5.9H785.3Z" style="fill:#349946"/><path d="M847.7,148.15a15.38,15.38,0,1,0-30.75,0v52.2H793.7V111h18.6v6.26a33.61,33.61,0,0,1,21.45-7.69c10.37,0,19,4.47,25.57,11.44a38.34,38.34,0,0,1,27.35-11.44,38.8,38.8,0,0,1,38.62,38.62v52.2h-23.6v-52.2a15.29,15.29,0,1,0-30.57,0v52.2H847.7Z" style="fill:#349946"/><path d="M1022.91,200.35h-19.66v-7.69a43.39,43.39,0,0,1-26.46,9.12,46.13,46.13,0,1,1,0-92.25,42.22,42.22,0,0,1,26.28,9.12V111h19.84Zm-23.06-44.87a22.53,22.53,0,1,0-22.53,22.88A22.43,22.43,0,0,0,999.85,155.48Z" style="fill:#349946"/><path d="M1109.63,148.15v52.2h-23.24v-52.2a15.47,15.47,0,0,0-30.93,0v52.2h-23.25V111h18.6v5.9a36.23,36.23,0,0,1,21.63-7.33C1093.36,109.53,1109.63,126.87,1109.63,148.15Z" style="fill:#349946"/><path d="M1161.3,201.78c-25,0-45.59-20.74-45.59-46.12a45.93,45.93,0,0,1,45.77-46.13c13,0,24.49,5.54,34,15.2l-14.66,16.62c-6.08-5.9-12.88-8.58-19.13-8.58a22.62,22.62,0,0,0,0,45.23c6.25,0,13.23-2.68,19.31-9.11l14.48,17.16C1186,195.17,1175.24,201.78,1161.3,201.78Z" style="fill:#349946"/><path d="M1220.48,163a25.2,25.2,0,0,0,24,16.8c10,0,18.41-4.83,24.13-9.65l13.77,16.62c-12.69,11.09-26.64,15-38.26,15-27.17,0-47.56-21.45-47.56-47,0-25.39,20.21-45.23,46-45.23,26.1,0,45.59,20.74,45.59,53.46Zm42.19-17.88c-1.78-8.76-9.65-16.27-20.73-16.27-10.73,0-19.49,6.79-21.28,16.27Z" style="fill:#349946"/><path d="M674.14,119.34c3-1,9.88-.39,13.38-.19-6.2,6.14-5.82,5.48-13.38.19Z" style="fill:#f48020;fill-rule:evenodd"/><path d="M694.58,119a25.42,25.42,0,0,0-8.26-.08c-1.77.41-2.19,2-2.38,3.75,4.93-.63,5.93-1.34,10.64-3.67Z" style="fill:#f6871f;fill-rule:evenodd"/><path d="M680.12,123.13c-2.68-5.47-9-4.9-15.76-2.87,8.77,1,7.41.9,15.76,2.87Z" style="fill:#f6871f;fill-rule:evenodd"/><path d="M685.2,92.77l2.09-.4c-10.58,18.3-6.61,21.34-11.74,30.24l-3.82-1.8c3.25-2.44,2.64-1.4,4.65-9.12,1.72-6.56,2.58-14.63,8.82-18.92Z" style="fill:#b27838;fill-rule:evenodd"/><path d="M690.15,94.68l.47,3.38c-2.4,0-7.36,20.21.18,23.2l-2.93,1c-2.42-3.82-3.81-5.32-3.07-12.84.6-6,2.86-10,5.35-14.78Z" style="fill:#8f5824;fill-rule:evenodd"/><path d="M673.1,121.44c9.8-5.23,1.92-17.57,14.09-29l3,2.27c-3.43,7.95-7.53,19.79-1.92,27.55-6.08.9-8.93,1.68-15.13-.79Z" style="fill:#b27838;fill-rule:evenodd"/><path d="M675.61,121.65c7.56-5.54.46-15.11,11.42-25.27-4.4,6.49-7,17.23-4.95,26.58-3.64-.42-3.25-.08-6.47-1.31Z" style="fill:#8f5824;fill-rule:evenodd"/><path d="M688.3,121.79c-4.77-9-2.34-13.14.36-23.45-4.25,8.24-5,15.53-3.28,24.62l2.92-1.17Z" style="fill:#e2a666;fill-rule:evenodd"/><path d="M673.1,121.44c9.54-6.37,1.31-17.86,14.18-29.07l2.62,2.12c-8,4.94-8.8,14-10.68,23.8-.68,3.52-2.56,3.66-6.12,3.15Z" style="fill:#e2a666;fill-rule:evenodd"/><path d="M685.19,92.83c-.81-.28-.63-.68,0-.88a13.57,13.57,0,0,1,2.69-.34,10.92,10.92,0,0,1,3.07,2,13.09,13.09,0,0,1,.64,3.52c.09,1-1.06,1.71-1.27.45-.15-.87-.27-2.52-.3-2.86l-2.79-2.25a10.38,10.38,0,0,1-2.08.31Z" style="fill:#d19a5e;fill-rule:evenodd"/><path d="M685.19,92.83a8.39,8.39,0,0,1,2.13-.51,8.7,8.7,0,0,1,2.94,2.28,7.68,7.68,0,0,1,.1,3c-.15-.87-.27-2.52-.3-2.86l-2.79-2.25a10.38,10.38,0,0,1-2.08.31Z" style="fill:#8f5824;fill-rule:evenodd"/><path d="M687.25,122.09c6.22-6.43,22.55-5,32.37,16.86-12-15.32-15.21-18.53-32.37-16.86Z" style="fill:#f7901e;fill-rule:evenodd"/><path d="M702.32,198.2c19.78-18,15.3-68.9-13.23-76.2,11.84-6.2,22.85,4.42,29.13,12.84,14.93,20,10.08,56.84-15.9,63.36Z" style="fill:#f7901e;fill-rule:evenodd"/><path d="M718.22,134.84c-6.28-8.42-17.29-19-29.13-12.84,30.68-4.49,45.9,53.11,13.23,76.2,26-6.52,30.83-43.33,15.9-63.36Z" style="fill:#f58120;fill-rule:evenodd"/><path d="M689.09,122c25.94-2,31.21,40.3,26.45,57.84-1.35,5-3.87,11.17-.95,11.92a28.8,28.8,0,0,1-12.27,6.44c19.78-18,15.3-68.9-13.23-76.2Z" style="fill:#e26f25;fill-rule:evenodd"/><path d="M684.7,121.9c14.48-1.41,21.39,4.48,27.66,23.59,4,12.11,5.13,40.09-5.64,50.73-4.76,4.71-15.17,5.35-21.63,6.23,10.31-16.6,8.8-63.81-.39-80.55Z" style="fill:#f7901e;fill-rule:evenodd"/><path d="M685.09,202.45l8-2.74c26.56-7.58,23-71.1-2-77.9,10.25.92,16,7.65,21.23,23.68,4,12.11,5.13,40.09-5.64,50.73-4.76,4.71-15.17,5.35-21.63,6.23Z" style="fill:#f58120;fill-rule:evenodd"/><path d="M696.05,200.87c-4.95-.25-2.6-3.55-2.16-8.79,1.41-16.53,6.19-64.63-9.19-70.18,9.19,16.74,10.7,63.95.39,80.55,3.1-.42,7.1-.79,11-1.58Z" style="fill:#e26f25;fill-rule:evenodd"/><path d="M677.69,122.8c-6.1-6.94-35.92-5.48-42.38,27.36-4.87,24.72,7.55,41.71,24.42,47.73-6.68-8.23-11.53-11.8-11.1-28.71.1-4.19,1.41-12.58,3.56-20.73,5.23-19.83,16.15-24.59,25.5-25.65Z" style="fill:#f7901e;fill-rule:evenodd"/><path d="M677.69,122.8C651,109,623.09,170,654,195.28l5.71,2.61c-6.68-8.23-11.53-11.8-11.1-28.71.1-4.19,1.41-12.58,3.56-20.73,5.23-19.83,16.15-24.59,25.5-25.65Z" style="fill:#f58120;fill-rule:evenodd"/><path d="M659.73,197.88c-31.49-9.52-13.7-88.14,18-75.08-24.89,2.8-40.62,47.17-18,75.08Z" style="fill:#e26f25;fill-rule:evenodd"/><path d="M679.74,122.24c-27.71-6.2-34.26,31.91-33.29,53.38s12,24.17,31.91,26.82c-9.09-15.92-7.09-36.38-4.87-54.09,1.06-8.52,3-18.12,6.25-26.11Z" style="fill:#f7901e;fill-rule:evenodd"/><path d="M679.74,122.24c-9,1.3-11.78,15.38-13.14,23a135.71,135.71,0,0,0-2.11,26c.18,11.48,5.7,29.32-10.74,23.72,5.38,4.59,13.64,6,24.61,7.51-9.09-15.92-7.09-36.38-4.87-54.09,1.06-8.52,3-18.12,6.25-26.11Z" style="fill:#f58120;fill-rule:evenodd"/><path d="M660.92,198.9c12.62,1.58,7.37-7.58,7.2-22.58a272,272,0,0,1,.53-27.28c1.1-12.8,4-25.25,11.09-26.8-3.2,8-5.19,17.59-6.25,26.11-2.22,17.71-4.22,38.17,4.87,54.09-6.9-.92-12.73-1.84-17.44-3.54Z" style="fill:#e26f25;fill-rule:evenodd"/><path d="M692.34,139.35c.67,10.49,3.59,58-5.09,62.7a12.28,12.28,0,0,1-11.55-.36c-8.86-5.05-7.39-75.29,2.93-79.35a8.85,8.85,0,0,1,6.75.17c4.11,1.76,6.68,12.47,7,16.84Z" style="fill:#f7901e;fill-rule:evenodd"/><path d="M687.25,202.05c8.68-4.75,5.76-52.21,5.09-62.7-.28-4.37-2.85-15.08-7-16.84,4.32,5.79,5.55,19.22,5.26,33.23-.25,11.9,2.43,47.66-14.94,45.95a12.28,12.28,0,0,0,11.55.36Z" style="fill:#f58120;fill-rule:evenodd"/><path d="M659.47,129.63c5.09-5.61,14.76-10,8.2,2.88-6,11.74-6.56,17.11-7,29.47-.59,18.68-13.8,15.68-12.32-1.49.81-9.44,4.76-23.9,11.08-30.86Z" style="fill:#f99e21;fill-rule:evenodd"/><path d="M671.48,162.31A103.76,103.76,0,0,1,673.3,139c2.48-11.92,11.56-19.78,11-3.31-.32,8.9.35,18.54.11,25.86-.41,12.35-12.34,16.08-12.89.73Z" style="fill:#f99e21;fill-rule:evenodd"/><path d="M693.7,131.45c-3.34-10.16,3-4.61,6.89,1.71,5.81,9.39,8.32,21.42,4.25,31.93-3.88,10-8.34,5.41-7.55-3.51,1.23-13.85,1-16.34-3.59-30.13Z" style="fill:#f99e21;fill-rule:evenodd"/><path d="M501.49,123.52c1.53-3.69-4.13-4.3-2.55-7.21s8.05.51,9.81-2.29c1.33-2.13-2.31-2.23-1.68-6,.37-2.19,9.33-6.3,8.44-9.76-.94-2.39-10.95.89-12.68-.5-3-2.41-.66-7.16-3.06-7.87-3.18-.93-4.4,5.61-7.51,4.48s-.15-6.65-3.74-8.39c-4.88-2.38-7,10.38-9.75,9.66-4.6-1.2-1-5.15-4.73-5.36-4.8-.26-8.25,21.9-10.59,20.7s.21-2.9-2.41-3.82c-1.7-.59-10.08,7.92-8.67,13.15,2.42,4.85,14.39,8.1,15.27,6.52,1.35-2.42-1.68-2-.73-4.45s17.52,12.32,20.94,8.93c2.66-2.64-1.47-4,1.18-7.94C490.62,121,499.42,128.53,501.49,123.52Z" style="fill:#db8f33"/><path d="M498.41,122.46c1.26-3-5-4.57-3.71-7s8.85.31,10.29-2c1.09-1.74-4.13-1.71-3.61-4.81.3-1.8,7.66-5.17,6.93-8-.77-2-9,.73-10.41-.42-2.45-2,3.52-8.55,1.55-9.13-2.61-.77-5.4,7.89-10.24,6.35-2.59-.82-.32-8-2.93-8.62s-5.87,10.26-8.15,9.66c-3.78-1-.85-5.15-3.93-5.32-3.94-.22-6.33,20.42-11.93,21.16-2.14.28.07-4-1.1-4-1.48,0-5.51,6.59-4.92,8.58s8.77,7.11,9.5,5.81c1.1-2-2.13-3.15-1.35-5.16s18.38,11,21.19,8.24c2.19-2.18-1.2-3.29,1-6.53C487.87,119.35,496.71,126.57,498.41,122.46Z" style="fill:#dea334"/><path d="M438.2,125.93l2.86-1.28,7.57-3.31c3.12-1.38,6.82-2.89,10.75-4.56,2-.83,4-1.7,6.09-2.51l6.32-2.5c2.12-.82,4.22-1.73,6.35-2.45s4.17-1.55,6.22-2.16,4-1.3,5.9-1.8,3.66-1,5.33-1.42,3.18-.78,4.54-1.06,2.54-.52,3.52-.7c2-.37,3.09-.52,3.09-.52s-1.12.17-3.08.56c-1,.2-2.16.44-3.51.77s-2.87.67-4.52,1.12-3.43,1-5.3,1.5-3.83,1.22-5.85,1.89-4.08,1.48-6.19,2.24-4.17,1.7-6.29,2.55l-6.27,2.62c-2.07.84-4.09,1.74-6,2.6-3.9,1.74-7.56,3.31-10.66,4.75l-7.5,3.43L438.7,127Z" style="fill:#752420"/><path d="M495.5,104a4,4,0,0,0,.29-.37c.19-.23.4-.6.68-1,.13-.21.25-.46.39-.71a6.24,6.24,0,0,0,.4-.82l.4-.89c.14-.3.21-.63.33-.94s.21-.64.32-1l.21-.95c.07-.3.14-.6.2-.89a6.21,6.21,0,0,0,.12-.8c.12-1,.22-1.69.22-1.69s0,.68-.06,1.7a6.12,6.12,0,0,1-.06.83c-.05.29-.11.59-.17.91s-.12.64-.19,1l-.31,1a9.94,9.94,0,0,1-.35,1q-.23.47-.42.9a5.67,5.67,0,0,1-.45.81c-.16.24-.3.49-.44.7A9.44,9.44,0,0,1,495.5,104Z" style="fill:#752420"/><path d="M480.06,108.82a20.61,20.61,0,0,0,2.38-2.86c.34-.45.65-1,1-1.5s.68-1.12,1-1.74a27.24,27.24,0,0,0,1.77-4c.28-.69.46-1.41.69-2.11s.34-1.41.51-2.09.22-1.35.34-2a17.35,17.35,0,0,0,.19-1.79c0-.56.13-1.06.12-1.52s0-.85,0-1.18c0-.65,0-1,0-1s0,.37,0,1c0,.33,0,.73,0,1.18a11.69,11.69,0,0,1-.05,1.53,17.18,17.18,0,0,1-.15,1.81c-.09.64-.15,1.32-.3,2s-.29,1.4-.49,2.11-.4,1.43-.67,2.13a29.43,29.43,0,0,1-1.83,4c-.31.63-.71,1.19-1,1.74s-.7,1-1.05,1.48A19.06,19.06,0,0,1,480.06,108.82Z" style="fill:#752420"/><path d="M465.44,114.63s.29-.25.76-.71,1.11-1.15,1.84-2c.36-.43.75-.9,1.13-1.43s.75-1.08,1.16-1.66.75-1.22,1.11-1.86.7-1.32,1-2l.44-1c.13-.35.24-.71.36-1.05s.24-.7.33-1,.17-.7.25-1a16.75,16.75,0,0,0,.36-2c0-.32.09-.63.13-.93s0-.6,0-.88c0-.56.06-1.08,0-1.54s-.05-.85-.08-1.18c0-.66-.07-1-.07-1s.05.38.13,1c0,.33.08.73.13,1.19s0,1,0,1.55c0,.28,0,.58,0,.88s-.07.62-.11.94a11.54,11.54,0,0,1-.32,2c-.08.34-.16.7-.24,1.05s-.22.71-.33,1.06-.22.72-.35,1.07l-.44,1a21.23,21.23,0,0,1-1,2c-.36.65-.75,1.28-1.13,1.87s-.79,1.16-1.21,1.66-.8,1-1.17,1.4a24.93,24.93,0,0,1-1.94,1.94A10.08,10.08,0,0,1,465.44,114.63Z" style="fill:#752420"/><path d="M493.49,104.8l.58.15c.37.1.9.24,1.52.46s1.34.51,2.11.82c.38.16.75.36,1.14.55s.79.37,1.17.6c.74.49,1.52.89,2.17,1.41l.93.74a7.17,7.17,0,0,1,.81.7l1.49,1.61-1.61-1.48a5.73,5.73,0,0,0-.83-.66L502,109c-.65-.51-1.44-.9-2.17-1.37-.37-.23-.77-.4-1.15-.61s-.75-.4-1.12-.57c-.76-.31-1.44-.67-2-.89s-1.12-.45-1.48-.57S493.49,104.8,493.49,104.8Z" style="fill:#752420"/><path d="M476.25,110.4s.4,0,1.1,0a23.73,23.73,0,0,1,2.89.31c.59.09,1.23.22,1.9.37s1.37.36,2.1.56,1.46.45,2.18.77a23.63,23.63,0,0,1,2.2,1,21.1,21.1,0,0,1,2.09,1.16,23,23,0,0,1,1.92,1.3,20,20,0,0,1,1.69,1.36,14.13,14.13,0,0,1,1.42,1.33c.41.44.81.82,1.11,1.2s.57.72.78,1l.68.87-.72-.83c-.22-.27-.5-.59-.82-1s-.73-.72-1.15-1.15a14,14,0,0,0-1.42-1.3c-.54-.43-1.07-.92-1.7-1.33s-1.23-.88-1.92-1.25a21,21,0,0,0-2.09-1.12c-.71-.38-1.44-.69-2.16-1s-1.46-.53-2.16-.8-1.41-.43-2.07-.58-1.3-.31-1.89-.41c-1.18-.22-2.17-.35-2.86-.41S476.25,110.4,476.25,110.4Z" style="fill:#752420"/><path d="M463.49,115.58s.38,0,1,0a24,24,0,0,1,2.72.28c.56.09,1.17.2,1.8.35s1.3.33,2,.53,1.37.45,2.06.73,1.4.57,2.06.94l1,.54c.33.19.64.4,1,.6s.64.4.93.62l.85.66a12.81,12.81,0,0,1,1.53,1.37l.68.66.56.68c.36.45.7.84,1,1.21l.64,1,.56.88-.6-.85-.69-1c-.28-.36-.64-.73-1-1.17L481,123l-.69-.64a14.38,14.38,0,0,0-1.54-1.32l-.85-.65c-.29-.22-.61-.4-.92-.6s-.62-.41-.94-.59l-1-.52c-.65-.38-1.35-.64-2-1s-1.37-.52-2-.75-1.32-.41-1.95-.55-1.22-.3-1.77-.4c-1.11-.21-2.05-.34-2.7-.4S463.49,115.58,463.49,115.58Z" style="fill:#752420"/><path d="M459.79,120.3c1.28-3.78,6-2.87,8.83-2.14,3.08.79,6.24,1.37,9.09,2.72-.69-.67-1.38-1.35-2.12-2-1-.89-2.21-1.63-3.24-2.54-.48-.42-1.38-1.12-1-1.88a5.5,5.5,0,0,1,2.84-2.23c3-1.39,6.18-.69,9.24.15a60.48,60.48,0,0,1,6.19,1.74c1.61.63,3,1.8,4.56,2.46-2-3.19-5.81-5.07-9.12-6.53a.29.29,0,0,1-.06-.47c5.64-4.55,12.17-2.1,18,.52a20.67,20.67,0,0,0-5.69-4.87.3.3,0,0,1,0-.52,18.13,18.13,0,0,1,4.47-2.17c-1.34-.44-2.75.14-4.1.46a.31.31,0,0,1-.34-.44,19.27,19.27,0,0,0,2.07-4.32c-1.65,1.74-3.28,3.56-5.55,4.48a41.88,41.88,0,0,1-8.7,2.2.3.3,0,0,1-.37-.29c-.06-2.1,1.33-3.84,1.83-5.81a32,32,0,0,0,1-7.09c-1.66,4.12-2.81,8.56-5.27,12.28a15,15,0,0,1-8,6c-.65.22-2,.81-2.58,0s-.19-2.07.06-2.93c.41-1.4,1.07-2.77,1.35-4.2a34.66,34.66,0,0,0,.62-5c-1.94,5.62-4.16,11.74-9.13,15.27-.94.67-3.8,2.28-4.37.19-.46-1.67,2-4.69,1-6.17l-.26-.11c-1.7-.59-10.08,7.92-8.67,13.15,1.4,2.81,6,5.07,9.79,6.18C460.12,125,458.86,123.06,459.79,120.3Z" style="fill:#d0bab6;mix-blend-mode:multiply"/><path d="M484.39,103.21c-.1-3.14-4.36-1.75-4.17-4.35s5.95-2.24,6.31-4.82c.27-2-2.38-.85-3.15-3.77-.45-1.69,4.66-7.54,2.9-9.74-1.45-1.41-7.58,4.19-9.27,3.75-2.91-.77-2.79-4.93-4.75-4.66-2.58.36-1.34,5.45-3.94,5.65s-2.26-4.73-5.4-4.82c-4.27-.13-1.65,9.72-3.88,10.1-3.69.62-2.36-3.38-5.12-2.32-3.54,1.36,1.16,18.4-.91,18.29s-.79-2.15-3-2c-1.42.12-4.69,9-2,12.25,3.3,2.7,12.95,1.16,13.07-.26.19-2.17-1.85-.89-2-3s16.58,3.18,17.94-.36c1.05-2.76-2.35-2.4-1.73-6.09C475.76,104.92,484.52,107.48,484.39,103.21Z" style="fill:#da8033"/><path d="M481.84,103.45c-.08-2.59-5.08-1.66-4.93-3.8s6.46-2.64,6.75-4.76c.22-1.61-3.52.1-4.15-2.29-.37-1.39,3.82-6.2,2.38-8-1.19-1.16-6.22,3.44-7.61,3.08-2.39-.63-.24-7.29-1.84-7.07-2.13.3-1.33,7.42-5.3,7.88-2.13.25-2.82-5.63-4.9-5.24s-.89,9.26-2.72,9.57c-3,.52-2.28-3.42-4.54-2.55-2.91,1.12,2.06,16.72-1.73,19.06-1.44.9-1.25-2.92-2.08-2.51-1.05.51-1.82,6.51-.76,7.75s8.61,2.26,8.71,1.1c.15-1.79-2.55-1.57-2.64-3.27s16.77,2,17.88-1c.87-2.26-1.92-2-1.41-5C473.25,104.63,482,107,481.84,103.45Z" style="fill:#dd9b34"/><path d="M439.71,125.43s2.38-2.68,6-6.67c1.79-2,4-4.28,6.24-6.75,1.15-1.24,2.32-2.52,3.57-3.77l3.72-3.85c1.26-1.28,2.48-2.61,3.77-3.81s2.49-2.47,3.77-3.57,2.45-2.23,3.65-3.2,2.3-1.93,3.37-2.75,2-1.59,2.92-2.23,1.66-1.2,2.3-1.65c1.29-.89,2.05-1.37,2.05-1.37s-.75.49-2,1.4c-.63.46-1.41,1-2.27,1.69s-1.84,1.42-2.88,2.27S471.74,93,470.58,94s-2.36,2.11-3.6,3.24-2.45,2.39-3.71,3.62-2.45,2.57-3.69,3.87l-3.66,3.9c-1.22,1.28-2.37,2.58-3.5,3.83-2.23,2.51-4.35,4.83-6.11,6.86-3.55,4-5.89,6.77-5.89,6.77Z" style="fill:#752420"/><path d="M473.78,91.16s0-.13.09-.36.09-.56.15-1a13.48,13.48,0,0,0,.08-1.36c0-.25,0-.5,0-.77a6.85,6.85,0,0,0-.07-.78c0-.27,0-.53-.07-.79s-.11-.51-.16-.75-.1-.48-.14-.71-.13-.42-.18-.61c-.23-.77-.38-1.29-.38-1.29L473.6,84c.06.19.16.38.22.61s.11.46.17.7l.18.76.09.8c0,.27.06.54.06.81s0,.52,0,.78a4.2,4.2,0,0,1-.06.72c0,.23-.05.45-.09.65A7.51,7.51,0,0,1,473.78,91.16Z" style="fill:#752420"/><path d="M464.24,99.59a15.94,15.94,0,0,0,.78-2.82c.11-.43.16-.91.25-1.4s.14-1,.15-1.58a20.74,20.74,0,0,0,0-3.43c0-.59-.13-1.17-.18-1.74S465,87.49,464.9,87s-.27-1-.4-1.53a13.38,13.38,0,0,0-.44-1.35c-.16-.41-.26-.8-.42-1.12l-.36-.86-.32-.74s.13.26.35.73l.41.83c.17.32.29.71.46,1.12s.34.85.47,1.35.3,1,.43,1.53.24,1.1.33,1.68.19,1.16.21,1.75a22.28,22.28,0,0,1,0,3.47c0,.55-.13,1.08-.18,1.58s-.16,1-.27,1.4A15,15,0,0,1,464.24,99.59Z" style="fill:#752420"/><path d="M455.62,108.5s.13-.27.31-.76.43-1.19.68-2a25,25,0,0,0,.65-3c.07-.55.14-1.12.19-1.7s.07-1.17,0-1.76a12.89,12.89,0,0,0-.09-1.76,13.22,13.22,0,0,0-.25-1.69,11.17,11.17,0,0,0-.39-1.54c-.07-.25-.14-.48-.21-.71s-.18-.44-.27-.64c-.18-.41-.31-.8-.47-1.12s-.31-.6-.44-.83l-.38-.72s.15.26.42.7q.19.34.48.81c.17.32.33.7.51,1.11l.28.64c.07.23.15.47.22.71a10.15,10.15,0,0,1,.42,1.56,11.37,11.37,0,0,1,.29,1.7,14.92,14.92,0,0,1,.12,1.78,17.54,17.54,0,0,1-.07,1.78c0,.58-.13,1.16-.21,1.71a24.58,24.58,0,0,1-.71,3,18.31,18.31,0,0,1-.76,2C455.76,108.24,455.62,108.5,455.62,108.5Z" style="fill:#752420"/><path d="M472.58,92.36s.17,0,.47-.08.73-.12,1.24-.16,1.13-.07,1.78-.1c.32,0,.66,0,1,0s.69,0,1,0c.69.11,1.38.15,2,.31l.91.23a7.59,7.59,0,0,1,.8.24l1.59.68L481.79,93a5.64,5.64,0,0,0-.81-.2l-.9-.19c-.63-.16-1.32-.18-2-.28-.34,0-.69,0-1-.07s-.67,0-1,0c-.65,0-1.25,0-1.77,0C473.27,92.28,472.58,92.36,472.58,92.36Z" style="fill:#752420"/><path d="M462,102s.28-.14.79-.33a19.77,19.77,0,0,1,2.18-.72c.45-.12.95-.23,1.49-.34s1.1-.19,1.68-.28,1.2-.15,1.82-.16,1.25,0,1.89,0a21.68,21.68,0,0,1,3.68.47,15.26,15.26,0,0,1,1.65.43,11.68,11.68,0,0,1,1.45.5c.43.18.85.32,1.19.5l.88.46.77.4-.79-.36-.9-.43c-.35-.15-.76-.28-1.2-.45a9.35,9.35,0,0,0-1.44-.47,12.85,12.85,0,0,0-1.65-.4,14.53,14.53,0,0,0-1.79-.28,16.28,16.28,0,0,0-1.86-.13A23.66,23.66,0,0,0,465,101,20.41,20.41,0,0,0,462,102Z" style="fill:#752420"/><path d="M454.53,109.81s.27-.13.75-.32a17,17,0,0,1,2.05-.67,22.77,22.77,0,0,1,3-.59c.55-.06,1.13-.12,1.71-.15a17.83,17.83,0,0,1,1.79,0,13.12,13.12,0,0,1,1.77.19,13,13,0,0,1,1.69.35,12,12,0,0,1,1.54.48l.7.26.63.3c.4.2.77.37,1.08.55l.79.52.68.45-.7-.42-.81-.47c-.32-.17-.7-.32-1.1-.51l-.63-.29-.7-.24a11,11,0,0,0-1.53-.46,12.35,12.35,0,0,0-1.67-.31,13,13,0,0,0-1.76-.17c-.58-.06-1.18,0-1.76,0s-1.15.07-1.7.12a23.51,23.51,0,0,0-3,.53c-.86.21-1.57.42-2.06.59S454.53,109.81,454.53,109.81Z" style="fill:#752420"/><path d="M453.4,114.4c-.31-3.13,3.35-4,5.64-4.39a38.34,38.34,0,0,1,7.41-1c-.71-.26-1.42-.52-2.15-.74-1-.3-2.12-.46-3.16-.78-.48-.14-1.35-.35-1.35-1a4.28,4.28,0,0,1,1.32-2.52c1.71-2,4.21-2.5,6.69-2.89a49.84,49.84,0,0,1,5-.75c1.37-.07,2.73.32,4.08.29-2.45-1.66-5.81-1.76-8.66-1.74a.22.22,0,0,1-.2-.31c2.57-5.1,8.06-5.45,13.13-5.47a16,16,0,0,0-5.66-1.66.24.24,0,0,1-.17-.37,14.15,14.15,0,0,1,2.5-3c-1.1.11-1.92,1-2.79,1.66a.24.24,0,0,1-.39-.21,14.89,14.89,0,0,0,.09-3.77,12.93,12.93,0,0,1-2.54,5,32.2,32.2,0,0,1-5.53,4.4.23.23,0,0,1-.36-.09c-.72-1.49-.29-3.19-.56-4.76a25.25,25.25,0,0,0-1.61-5.4c.14,3.49.75,7,.19,10.52a11.81,11.81,0,0,1-3.78,6.9c-.4.37-1.21,1.24-1.85.85s-.8-1.42-.9-2.12c-.17-1.13-.14-2.33-.4-3.45a27.76,27.76,0,0,0-1.15-3.77c.42,4.67.81,9.79-1.62,13.93-.46.79-2,2.86-3.08,1.55-.87-1-.05-4-1.27-4.75a1.61,1.61,0,0,0-.22,0c-1.42.12-4.69,9-2,12.25,1.91,1.56,5.94,1.7,9,1.27C455.16,117.68,453.62,116.69,453.4,114.4Z" style="fill:#d0bab6;mix-blend-mode:multiply"/><path d="M1020.49,202c-.6-.35-.63-.71-.8-3.07-.08-1.15-.2-3.1-.29-5.81-.15-4.4-.25-11.36.13-19.56.65-14.18,2.88-34.35,9.77-49.87a132.07,132.07,0,0,1,15.63-26,174,174,0,0,1,17.75-19.82,166.61,166.61,0,0,1,20.61-17.11l1.32,2a166,166,0,0,0-20.33,16.88c-10.2,9.84-24.17,25.64-32.81,45.09-6.63,14.92-8.84,34.37-9.52,48.05a203.88,203.88,0,0,0,.29,28,1.14,1.14,0,0,0-.55-.74Z" style="fill:#ffd345"/><path d="M1044,96.38a9.48,9.48,0,0,1-1.55,4.06c-.78,1.23-1.7,2.38-2.46,3.63-.53.88-1,1.81-1.44,2.74a2.49,2.49,0,0,1,1.05-.7c-.28.6-.55,1.19-.83,1.78l.51-.22a12.64,12.64,0,0,0-1,4,14.67,14.67,0,0,1,1.55-2.72,60.31,60.31,0,0,1,6.17-8.21,4,4,0,0,1,2.57-1.53,1,1,0,0,0,.41,0c.32-.15.31-.61.2-1a5.42,5.42,0,0,0-3.41-3.13c-.61-.23-1.2-.52-1.8-.76C1043.77,94.79,1044.09,95.82,1044,96.38Z" style="fill:#e0ab3d"/><path d="M1051.46,96.94a19.22,19.22,0,0,0,1.5-1.85c1.74-2.1,4.57-3.08,6.27-5.21,1.09-1.36,1.65-3.11,2.9-4.31a16.54,16.54,0,0,1,3.69-2.16,13.91,13.91,0,0,0,4.65-4c1.11-1.51,2-3.3,3.56-4.28a18,18,0,0,1,2.42-1.07,9.63,9.63,0,0,0,4.5-4.12,16.16,16.16,0,0,1,1.49-2.67c1-1.16,2.61-2.24,2.19-3.69a2.47,2.47,0,0,0-2-1.49c-3.33-.72-6.5,1.5-9.27,3.49-4.87,3.5-10,6.7-14.52,10.62a36.65,36.65,0,0,0-9.47,11.78c-.78,1.65-2.42,4.46-2.46,6.3C1046.88,96.48,1049.56,98.71,1051.46,96.94Z" style="fill:#e0ab3d"/><path d="M1040,198.83l-2.37-.17a306,306,0,0,0-.06-38.8,168,168,0,0,0-4.71-31.12c-2.85-10.67-6.79-18.51-11.72-23.31-15.74-15.33-34.69-20.62-56.31-15.73a85.78,85.78,0,0,0-28.07,12.1l-1.38-1.93A86.53,86.53,0,0,1,964.25,87.4a65.12,65.12,0,0,1,28.22-.48c11.14,2.39,21.35,8,30.35,16.81,5.24,5.1,9.4,13.32,12.35,24.42a170.11,170.11,0,0,1,4.79,31.57A310.79,310.79,0,0,1,1040,198.83Z" style="fill:#ffd345"/><path d="M1005.6,94.27a28.22,28.22,0,0,1,4.61,2.48l4.87,3.44-1.15-1.62.82.15-.85-1-1.11-1.43,1.29.71-.4-.93s-3.07-2.09-4.58-2.91-1.77-.48-2.07-1.52a9.34,9.34,0,0,1-.33-1.88l-2.54,2.17Z" style="fill:#e0ab3d"/><path d="M937.64,98.78a2.56,2.56,0,0,0,2.91.53c1-.37,1.85-1,2.83-1.46a2.72,2.72,0,0,1,3,.3,5.24,5.24,0,0,0,.63.7c.91.66,2.09-.41,2.64-1.39.22-.39.53-.84,1-.77s.54.4.77.66a2.46,2.46,0,0,0,2.71.46A6.31,6.31,0,0,0,956.33,96c.42-.47.94-1,1.56-.92a3.22,3.22,0,0,1,1.18.63,3.55,3.55,0,0,0,3.35-.23c1-.53,2-1.3,3-1.74,1.73-.71,3.68-.49,5.55-.4,4.8.23,9.62-.44,14.4,0A52.83,52.83,0,0,1,996,95.86a14.57,14.57,0,0,0,4.11.87,4.18,4.18,0,0,0,4.47-5.41,13.79,13.79,0,0,0-1.58-3.71c-1-1.79-2.31-3.81-4.35-3.87-.82,0-1.62.29-2.44.24-1.43-.08-2.56-1.21-3.86-1.82a10.84,10.84,0,0,0-5.07-.62q-10.44.4-20.84,1.48a15.54,15.54,0,0,0-4.49.92c-1,.4-1.83,1-2.81,1.34-2.25.82-4.79.34-7.1,1-3.33,1-5.59,4.06-8.73,5.52a26.44,26.44,0,0,0-3.12,1.39C939,93.89,936.64,97.48,937.64,98.78Z" style="fill:#e0ab3d"/><path d="M919.14,101c-.68.08-1.37.12-2.06.24-.48.08-1,.19-1.44.28a11.34,11.34,0,0,1-2.85.13.62.62,0,0,1,.44-.17,52.08,52.08,0,0,0,11.2-2.17,2.87,2.87,0,0,1,1.22-.19c.33,0,.8.45.38.74s-1,.14-1.37.19c-1.18.18-2.34.43-3.51.65C920.48,100.77,919.81,100.88,919.14,101Z" style="fill:#ffd345"/><path d="M938.4,99c-2,1.78-4.89,2-7.53,1.73s-5.26-1-7.91-.92c1.15-.42,1.85-1.57,2.73-2.44a11.68,11.68,0,0,1,4.59-2.5,10.69,10.69,0,0,1,5.63-.66,6.07,6.07,0,0,1,3.2,1.84C940,97.09,939.32,98.19,938.4,99Z" style="fill:#ffd345"/><path d="M925.69,97.41a17.44,17.44,0,0,1-2.05,2.07,43.46,43.46,0,0,0,5.24-2.92,12.32,12.32,0,0,1,4.51-1.34,5.28,5.28,0,0,1,2.34.19,2.41,2.41,0,0,1,1.56,1.65,2.47,2.47,0,0,1-.91,2.31,6.05,6.05,0,0,1-2.35,1.1c-.56.15-1.13.29-1.71.4A8.65,8.65,0,0,0,938.4,99c.91-.83,1.57-1.93.71-3a6,6,0,0,0-3.2-1.84,10.64,10.64,0,0,0-5.64.66A11.47,11.47,0,0,0,925.69,97.41Z" style="fill:#ecb73f"/><path d="M937,99a11.17,11.17,0,0,1-5,.73,10,10,0,0,0,4.57-1.35,4.2,4.2,0,0,0,1.87-1.76,6.74,6.74,0,0,1-3.91,1.58,4.68,4.68,0,0,0,2-.88c.35-.32.6-.75,1-1a.7.7,0,0,1,.53-.18.64.64,0,0,1,.44.33,1.69,1.69,0,0,1,.06,1.7.78.78,0,0,1-.57.45C937.62,98.66,937.33,98.85,937,99Z" style="fill:#ecb73f"/><g style="opacity:0.46"><path d="M930.89,100.34a1,1,0,0,0,.53-.19.49.49,0,0,0,.2-.5.57.57,0,0,0-.27-.32,2.58,2.58,0,0,0-1.49-.19,10.49,10.49,0,0,1-1.86-.08,1.61,1.61,0,0,0-.69,0,.54.54,0,0,0-.44.46,2.83,2.83,0,0,0,.91.18,8.06,8.06,0,0,1,1.07.29A5,5,0,0,0,930.89,100.34Z" style="fill:#fff"/></g><path d="M1030.45,199c0-.2-3.42-20.54-6.18-45.16-3.7-33.11-4.54-57.77-2.51-73.3,3-22.91,10.37-52.55,10.45-52.85l2.53.63c-.07.3-7.4,29.8-10.38,52.56-2,15.1-1.11,40.23,2.51,72.66,2.75,24.55,6.13,44.83,6.16,45Z" style="fill:#ffd345"/><path d="M1022.37,76.29a18.58,18.58,0,0,1,.89-2.65,57.19,57.19,0,0,0-.39,7.73c.09-.31.18-.61.26-.91.39,2.08.08,5.63.46,7.72.11-5,1.7-11.49,2.77-16.42a9.93,9.93,0,0,1,.79-2.55,2.58,2.58,0,0,0,.46-1.36,1.49,1.49,0,0,0-.39-.84,3.09,3.09,0,0,0-3.69-.73c-1.2.64-.6,2.5-.63,3.66A55,55,0,0,1,1022.37,76.29Z" style="fill:#e0ab3d"/><path d="M1022.61,66a6.56,6.56,0,0,1-.11-3.6c.31-1.87.61-3.75.91-5.62a60.62,60.62,0,0,1,2.48-11,28.47,28.47,0,0,0,2-6.16,34,34,0,0,1,.37-4.06c.35-1.37,1.15-2.6,1.42-4,.3-1.6-.13-3.3.4-4.84s2.14-2.75,2.84-4.34c.55-1.24.75-2.94,2-3.34a2.11,2.11,0,0,1,2.36,1.24,5.4,5.4,0,0,1,.32,2.85,14.57,14.57,0,0,1-1,4.39c-.46,1.08-1.12,2.07-1.49,3.18-.82,2.41-.23,5.09-.7,7.59s-1.83,4.52-2.55,6.85c-.85,2.8-.71,5.79-1,8.7a50.34,50.34,0,0,1-1.8,8.75,9.51,9.51,0,0,1-1.19,2.93C1026.74,67.23,1023.7,68.52,1022.61,66Z" style="fill:#e0ab3d"/><path d="M1049.44,14.31c.51-.67,1-1.37,1.52-2,.39-.46.81-.89,1.2-1.35a13.92,13.92,0,0,0,1.91-2.89.68.68,0,0,0-.45.35,63.85,63.85,0,0,1-9.24,10.39,3.48,3.48,0,0,0-1,1.16c-.16.37,0,1.11.54.86.4-.18.79-1,1.06-1.32.91-1.13,1.9-2.19,2.86-3.28C1048.41,15.6,1048.94,15,1049.44,14.31Z" style="fill:#ffd345"/><path d="M1035.42,33.29c3.1-1,5.17-3.87,6.5-6.82s2.17-6.16,4-8.86c-1.17.94-2.8,1-4.26,1.34a14.1,14.1,0,0,0-5.47,3.25,13.05,13.05,0,0,0-4.2,5.5,7.36,7.36,0,0,0-.06,4.5C1032.43,33.75,1034,33.74,1035.42,33.29Z" style="fill:#ffd345"/><path d="M1041.65,19a20.23,20.23,0,0,0,3.45-.85,55.34,55.34,0,0,1-6.32,3.68,15.17,15.17,0,0,0-4.22,3.88,6.39,6.39,0,0,0-1.25,2.58,3,3,0,0,0,.76,2.67,3,3,0,0,0,3,.47,7.32,7.32,0,0,0,2.61-1.78c.51-.49,1-1,1.48-1.54a10.49,10.49,0,0,1-5.7,5.24c-1.43.44-3,.45-3.53-1.1a7.28,7.28,0,0,1,.06-4.5,12.94,12.94,0,0,1,4.19-5.49A14.24,14.24,0,0,1,1041.65,19Z" style="fill:#ecb73f"/><path d="M1036.25,31.81a13.51,13.51,0,0,0,3.89-4.8,12.23,12.23,0,0,1-4.26,3.95,5.18,5.18,0,0,1-3,.86A8.18,8.18,0,0,0,1037,28.7a5.7,5.7,0,0,1-2.16,1.53c-.56.17-1.16.16-1.71.38a.86.86,0,0,0-.52.43.82.82,0,0,0,.08.68,2.06,2.06,0,0,0,1.74,1.12,1,1,0,0,0,.82-.32C1035.54,32.25,1035.92,32.07,1036.25,31.81Z" style="fill:#ecb73f"/><path d="M1047.58,24.71c.51-.67,1-1.37,1.52-2,.39-.46.81-.89,1.19-1.34a13.53,13.53,0,0,0,1.91-2.89.73.73,0,0,0-.45.35,63.13,63.13,0,0,1-9.22,10.37,3.57,3.57,0,0,0-1,1.16c-.16.37,0,1.11.54.85.39-.18.78-1,1.05-1.32.91-1.12,1.9-2.17,2.85-3.26C1046.55,26,1047.08,25.36,1047.58,24.71Z" style="fill:#ffd345"/><path d="M1033.59,43.66c3.09-1,5.16-3.87,6.49-6.82s2.16-6.15,4-8.84c-1.17.94-2.8,1-4.25,1.34a14,14,0,0,0-5.46,3.25,12.89,12.89,0,0,0-4.19,5.48,7.25,7.25,0,0,0-.06,4.49C1030.6,44.11,1032.16,44.1,1033.59,43.66Z" style="fill:#ffd345"/><path d="M1039.81,29.35a21.35,21.35,0,0,0,3.44-.85,54.12,54.12,0,0,1-6.31,3.67,15.27,15.27,0,0,0-4.21,3.88,6.29,6.29,0,0,0-1.25,2.57,2.92,2.92,0,0,0,.76,2.66,3,3,0,0,0,3,.48,7.23,7.23,0,0,0,2.61-1.78c.51-.49,1-1,1.48-1.54a10.52,10.52,0,0,1-5.69,5.23c-1.43.44-3,.45-3.53-1.1a7.4,7.4,0,0,1,.06-4.49,13.05,13.05,0,0,1,4.19-5.48A14.1,14.1,0,0,1,1039.81,29.35Z" style="fill:#ecb73f"/><path d="M1034.42,42.17a13.47,13.47,0,0,0,3.88-4.79,12,12,0,0,1-4.25,3.94,5,5,0,0,1-3,.86,8.1,8.1,0,0,0,4.08-3.11A5.59,5.59,0,0,1,1033,40.6c-.56.17-1.16.16-1.7.37a.72.72,0,0,0-.45,1.12,2.07,2.07,0,0,0,1.74,1.11,1,1,0,0,0,.82-.31C1033.7,42.62,1034.09,42.43,1034.42,42.17Z" style="fill:#ecb73f"/><path d="M1047.57,35.31c.57-.61,1.12-1.25,1.73-1.83.43-.41.89-.79,1.33-1.2a13.42,13.42,0,0,0,2.21-2.66.74.74,0,0,0-.48.3,64.09,64.09,0,0,1-10.31,9.3,3.46,3.46,0,0,0-1.08,1c-.2.35-.15,1.1.44.91.41-.14.88-.9,1.19-1.2,1-1,2.13-1.95,3.2-2.93C1046.4,36.48,1047,35.91,1047.57,35.31Z" style="fill:#ffd345"/><path d="M1031.58,52.61c3.17-.61,5.55-3.27,7.19-6.06s2.83-5.87,4.9-8.35c-1.26.8-2.88.65-4.37.86a14.22,14.22,0,0,0-5.79,2.63,13,13,0,0,0-4.76,5,7.26,7.26,0,0,0-.55,4.45C1028.55,52.73,1030.11,52.89,1031.58,52.61Z" style="fill:#ffd345"/><path d="M1039.33,39.08a21.31,21.31,0,0,0,3.52-.47,53.22,53.22,0,0,1-6.68,3,15.16,15.16,0,0,0-4.61,3.4,6.25,6.25,0,0,0-1.52,2.41,2.94,2.94,0,0,0,.45,2.73,3,3,0,0,0,2.92.8,7.25,7.25,0,0,0,2.78-1.47c.57-.44,1.11-.9,1.64-1.37a10.41,10.41,0,0,1-6.23,4.56c-1.47.29-3,.12-3.38-1.47a7.29,7.29,0,0,1,.55-4.46,13,13,0,0,1,4.77-5A14,14,0,0,1,1039.33,39.08Z" style="fill:#ecb73f"/><path d="M1032.57,51.23a13.65,13.65,0,0,0,4.38-4.34,12,12,0,0,1-4.66,3.45,5.09,5.09,0,0,1-3.07.53,8.14,8.14,0,0,0,4.39-2.65,5.47,5.47,0,0,1-2.3,1.28c-.58.11-1.18,0-1.74.19a.93.93,0,0,0-.57.37.92.92,0,0,0,0,.69,2.07,2.07,0,0,0,1.61,1.29.92.92,0,0,0,.85-.22C1031.8,51.59,1032.21,51.45,1032.57,51.23Z" style="fill:#ecb73f"/><path d="M1046.76,46.37c.64-.53,1.26-1.11,1.93-1.61.47-.36,1-.68,1.46-1a13.86,13.86,0,0,0,2.51-2.39.67.67,0,0,0-.52.25,64.46,64.46,0,0,1-11.31,8,3.45,3.45,0,0,0-1.2.9c-.24.33-.27,1.08.33,1,.43-.09,1-.79,1.32-1,1.15-.89,2.35-1.7,3.52-2.55C1045.46,47.4,1046.12,46.9,1046.76,46.37Z" style="fill:#ffd345"/><path d="M1028.87,61.71c3.23-.24,5.9-2.61,7.85-5.19s3.49-5.51,5.84-7.73c-1.35.66-3,.31-4.44.35a14.07,14.07,0,0,0-6.06,1.94,12.94,12.94,0,0,0-5.31,4.41,7.27,7.27,0,0,0-1.06,4.36C1025.86,61.48,1027.38,61.82,1028.87,61.71Z" style="fill:#ffd345"/><path d="M1038.14,49.16a21,21,0,0,0,3.55-.06,52.74,52.74,0,0,1-7,2.16,15.19,15.19,0,0,0-5,2.84,6.34,6.34,0,0,0-1.79,2.23,2.93,2.93,0,0,0,.14,2.76,3,3,0,0,0,2.8,1.13,7.28,7.28,0,0,0,2.94-1.14c.61-.37,1.2-.76,1.78-1.17-1.8,2-4.07,3.62-6.71,3.81-1.5.12-3-.23-3.19-1.85a7.27,7.27,0,0,1,1.06-4.36,13,13,0,0,1,5.31-4.41A14.07,14.07,0,0,1,1038.14,49.16Z" style="fill:#ecb73f"/><path d="M1030,60.45a13.75,13.75,0,0,0,4.85-3.8,12.14,12.14,0,0,1-5,2.89,5.1,5.1,0,0,1-3.11.16,8.11,8.11,0,0,0,4.67-2.12,5.47,5.47,0,0,1-2.43,1c-.59,0-1.17-.1-1.75,0a.93.93,0,0,0-.61.31.89.89,0,0,0-.08.68A2.05,2.05,0,0,0,1028,61a.93.93,0,0,0,.87-.12C1029.22,60.72,1029.63,60.62,1030,60.45Z" style="fill:#ecb73f"/><path d="M1038.94-.23c.19-.77.41-1.52.56-2.3.1-.55.16-1.11.26-1.66a12.89,12.89,0,0,1,1-3.11.64.64,0,0,1,0,.54,60.35,60.35,0,0,0-2,12.88,3.23,3.23,0,0,1-.26,1.38c-.18.34-.79.68-.94.12-.11-.39.25-1.15.33-1.55.27-1.33.45-2.68.67-4C1038.62,1.29,1038.76.52,1038.94-.23Z" style="fill:#ffd345"/><path d="M1033.51,21.23c-1.14-2.82-.27-6.05,1.09-8.78s3.18-5.23,4.07-8.14c0,1.41,1,2.61,1.55,3.89a13.14,13.14,0,0,1,.9,5.91,12.14,12.14,0,0,1-1.49,6.31,6.82,6.82,0,0,1-3.22,2.71C1035,23.67,1034,22.53,1033.51,21.23Z" style="fill:#ffd345"/><path d="M1040.2,8.19a21.13,21.13,0,0,1-1.43-3,50.58,50.58,0,0,0,1.09,6.77,14.29,14.29,0,0,1-.31,5.37,6,6,0,0,1-1.12,2.44,2.78,2.78,0,0,1-2.39,1,2.85,2.85,0,0,1-2.12-1.89,6.82,6.82,0,0,1-.26-2.95c0-.67.13-1.33.23-2a9.82,9.82,0,0,0-.4,7.25c.53,1.3,1.45,2.44,2.89,1.9a6.76,6.76,0,0,0,3.23-2.72,12.19,12.19,0,0,0,1.49-6.31A13.26,13.26,0,0,0,1040.2,8.19Z" style="fill:#ecb73f"/><path d="M1034.1,19.74a12.78,12.78,0,0,1,1.16-5.68,11.38,11.38,0,0,0-.32,5.44,4.73,4.73,0,0,0,1.16,2.69,7.58,7.58,0,0,1-.17-4.82,5.18,5.18,0,0,0,.17,2.48c.21.5.57.94.74,1.46a.67.67,0,0,1-.54,1,2,2,0,0,1-1.85-.6.91.91,0,0,1-.26-.78C1034.2,20.53,1034.11,20.13,1034.1,19.74Z" style="fill:#ecb73f"/><g style="opacity:0.46"><path d="M1035,12.64a1.16,1.16,0,0,0,0,.64.57.57,0,0,0,.46.41.71.71,0,0,0,.46-.17,3,3,0,0,0,.78-1.53,10.54,10.54,0,0,1,.82-2,2.19,2.19,0,0,0,.29-.73.65.65,0,0,0-.33-.66,3.35,3.35,0,0,0-.55.91,8.32,8.32,0,0,1-.73,1A5.78,5.78,0,0,0,1035,12.64Z" style="fill:#fff"/></g><path d="M1027.5,4.2c-.07-.78-.09-1.57-.19-2.35-.08-.56-.19-1.11-.27-1.67a13.09,13.09,0,0,1,0-3.25.64.64,0,0,1,.17.51,60.3,60.3,0,0,0,2.07,12.87,3.21,3.21,0,0,1,.18,1.4c-.06.38-.54.89-.85.41s-.12-1.18-.17-1.58c-.16-1.35-.41-2.69-.61-4C1027.66,5.75,1027.56,5,1027.5,4.2Z" style="fill:#ffd345"/><path d="M1029,26.29c-2-2.32-2.14-5.67-1.7-8.68s1.4-6,1.34-9c.45,1.33,1.73,2.17,2.69,3.21a13.19,13.19,0,0,1,2.69,5.33,12.22,12.22,0,0,1,.55,6.46,6.94,6.94,0,0,1-2.22,3.59C1031.16,28.15,1029.92,27.36,1029,26.29Z" style="fill:#ffd345"/><path d="M1031.31,11.81A20.05,20.05,0,0,1,1029,9.4a50.53,50.53,0,0,0,3.15,6.09,14.49,14.49,0,0,1,1.38,5.2,5.9,5.9,0,0,1-.32,2.67,2.76,2.76,0,0,1-1.94,1.73,2.84,2.84,0,0,1-2.6-1.13,6.89,6.89,0,0,1-1.17-2.72c-.16-.65-.29-1.31-.39-2a9.78,9.78,0,0,0,1.87,7c.91,1.07,2.14,1.87,3.34.91a6.79,6.79,0,0,0,2.22-3.58,12.21,12.21,0,0,0-.55-6.46A13.11,13.11,0,0,0,1031.31,11.81Z" style="fill:#ecb73f"/><path d="M1029.1,24.69a12.81,12.81,0,0,1-.65-5.76,11.38,11.38,0,0,0,1.38,5.28,4.76,4.76,0,0,0,1.94,2.19,7.63,7.63,0,0,1-1.66-4.53,5.31,5.31,0,0,0,.93,2.3c.36.42.84.72,1.16,1.16a.82.82,0,0,1,.2.61.84.84,0,0,1-.41.5,2,2,0,0,1-1.94,0,.89.89,0,0,1-.49-.66C1029.45,25.4,1029.24,25.06,1029.1,24.69Z" style="fill:#ecb73f"/><g style="opacity:0.46"><path d="M1027.77,17.66a1.22,1.22,0,0,0,.19.61.59.59,0,0,0,.57.24.66.66,0,0,0,.38-.3,2.92,2.92,0,0,0,.27-1.69,10.86,10.86,0,0,1,.16-2.13,2.06,2.06,0,0,0,.05-.78.63.63,0,0,0-.51-.52,3.24,3.24,0,0,0-.25,1,8.81,8.81,0,0,1-.36,1.21A5.55,5.55,0,0,0,1027.77,17.66Z" style="fill:#fff"/></g><path d="M1022.1,13.73c-.17-.82-.3-1.65-.51-2.47-.16-.57-.35-1.14-.51-1.72a13.65,13.65,0,0,1-.48-3.43.69.69,0,0,1,.25.52A64.37,64.37,0,0,0,1024.74,20a3.4,3.4,0,0,1,.38,1.45c0,.41-.46,1-.85.55s-.29-1.23-.39-1.65c-.35-1.4-.79-2.78-1.18-4.17C1022.48,15.33,1022.27,14.54,1022.1,13.73Z" style="fill:#ffd345"/><path d="M1026.63,36.84c-2.38-2.18-3-5.7-3-8.93s.68-6.48.22-9.68c.65,1.35,2.11,2.06,3.26,3a14,14,0,0,1,3.55,5.27,13,13,0,0,1,1.44,6.75,7.32,7.32,0,0,1-1.87,4.08C1029.14,38.53,1027.73,37.86,1026.63,36.84Z" style="fill:#ffd345"/><path d="M1027.13,21.26a21.6,21.6,0,0,1-2.74-2.25,53.19,53.19,0,0,0,4.13,6,15.26,15.26,0,0,1,2.14,5.31,6.28,6.28,0,0,1,0,2.86,3,3,0,0,1-1.82,2.08,3,3,0,0,1-2.91-.85,7.37,7.37,0,0,1-1.59-2.72c-.25-.66-.48-1.34-.68-2,.19,2.68,1,5.36,2.91,7.15,1.1,1,2.51,1.69,3.65.52a7.32,7.32,0,0,0,1.87-4.08,12.93,12.93,0,0,0-1.44-6.75A14,14,0,0,0,1027.13,21.26Z" style="fill:#ecb73f"/><path d="M1026.51,35.15a13.71,13.71,0,0,1-1.46-6,12.26,12.26,0,0,0,2.16,5.38,5.07,5.07,0,0,0,2.34,2.06A8.09,8.09,0,0,1,1027.2,32a5.51,5.51,0,0,0,1.29,2.3c.43.39,1,.65,1.38,1.07a.85.85,0,0,1,.28.62.83.83,0,0,1-.36.58,2.05,2.05,0,0,1-2,.26,1,1,0,0,1-.61-.64C1027,35.86,1026.7,35.52,1026.51,35.15Z" style="fill:#ecb73f"/><g style="opacity:0.46"><path d="M1024.17,27.9a1.32,1.32,0,0,0,.29.62.59.59,0,0,0,.62.18.7.7,0,0,0,.37-.37,3.12,3.12,0,0,0,0-1.82,12.29,12.29,0,0,1-.1-2.27,2.31,2.31,0,0,0-.05-.83.68.68,0,0,0-.61-.48,3.22,3.22,0,0,0-.13,1.12,9.57,9.57,0,0,1-.22,1.32A6,6,0,0,0,1024.17,27.9Z" style="fill:#fff"/></g><path d="M1018.59,23.65c-.2-.82-.37-1.64-.62-2.44-.18-.57-.4-1.13-.58-1.7a14.07,14.07,0,0,1-.64-3.41.69.69,0,0,1,.28.51,64.19,64.19,0,0,0,4.48,13.13,3.4,3.4,0,0,1,.44,1.44c0,.4-.41,1-.83.58s-.33-1.22-.45-1.63c-.41-1.38-.91-2.74-1.37-4.11C1019,25.23,1018.8,24.45,1018.59,23.65Z" style="fill:#ffd345"/><path d="M1024.15,46.54c-2.48-2.08-3.26-5.56-3.34-8.8s.39-6.5-.22-9.68c.71,1.32,2.21,2,3.4,2.88a14.13,14.13,0,0,1,3.78,5.11,13,13,0,0,1,1.73,6.68,7.3,7.3,0,0,1-1.68,4.16C1026.73,48.11,1025.29,47.5,1024.15,46.54Z" style="fill:#ffd345"/><path d="M1024,30.94a20.87,20.87,0,0,1-2.85-2.12,54.88,54.88,0,0,0,4.4,5.83,15.41,15.41,0,0,1,2.38,5.21,6.4,6.4,0,0,1,.15,2.85,2.93,2.93,0,0,1-1.73,2.16,3,3,0,0,1-2.93-.72,7.32,7.32,0,0,1-1.72-2.64c-.28-.65-.53-1.32-.76-2,.3,2.67,1.19,5.32,3.22,7,1.14,1,2.58,1.57,3.67.36a7.33,7.33,0,0,0,1.68-4.17,13,13,0,0,0-1.73-6.68A14.13,14.13,0,0,0,1024,30.94Z" style="fill:#ecb73f"/><path d="M1024,44.85a13.58,13.58,0,0,1-1.73-5.92,12.21,12.21,0,0,0,2.4,5.28,5,5,0,0,0,2.43,1.95,8.05,8.05,0,0,1-2.56-4.45,5.63,5.63,0,0,0,1.39,2.24c.45.38,1,.6,1.43,1a.86.86,0,0,1,.31.6.85.85,0,0,1-.33.6,2.06,2.06,0,0,1-2,.35,1,1,0,0,1-.63-.6C1024.44,45.53,1024.16,45.21,1024,44.85Z" style="fill:#ecb73f"/><g style="opacity:0.46"><path d="M1021.29,37.71a1.29,1.29,0,0,0,.32.61.6.6,0,0,0,.63.15.69.69,0,0,0,.35-.38,3.09,3.09,0,0,0,0-1.83,11.38,11.38,0,0,1-.2-2.26,2.25,2.25,0,0,0-.09-.82.66.66,0,0,0-.63-.46,3.53,3.53,0,0,0-.08,1.13,8.62,8.62,0,0,1-.16,1.33A5.85,5.85,0,0,0,1021.29,37.71Z" style="fill:#fff"/></g><path d="M1016.78,33.3c-.17-.82-.3-1.65-.52-2.47-.15-.57-.34-1.14-.5-1.72a13.66,13.66,0,0,1-.49-3.43.73.73,0,0,1,.26.52,63.76,63.76,0,0,0,3.89,13.32,3.55,3.55,0,0,1,.38,1.45c0,.41-.46,1-.86.55s-.28-1.23-.38-1.65c-.35-1.4-.79-2.78-1.18-4.17C1017.15,34.9,1016.94,34.11,1016.78,33.3Z" style="fill:#ffd345"/><path d="M1021.31,56.42c-2.39-2.19-3-5.71-2.95-8.94s.68-6.48.22-9.68c.65,1.35,2.11,2.06,3.26,3a14,14,0,0,1,3.55,5.27,13,13,0,0,1,1.44,6.75,7.32,7.32,0,0,1-1.87,4.08C1023.82,58.1,1022.41,57.43,1021.31,56.42Z" style="fill:#ffd345"/><path d="M1021.81,40.83a21.6,21.6,0,0,1-2.74-2.25,52.26,52.26,0,0,0,4.13,6,15.34,15.34,0,0,1,2.14,5.31,6.42,6.42,0,0,1,0,2.86,3,3,0,0,1-1.83,2.08,3,3,0,0,1-2.9-.85,7.37,7.37,0,0,1-1.59-2.72c-.25-.66-.48-1.34-.68-2a10.47,10.47,0,0,0,2.91,7.16c1.1,1,2.51,1.68,3.65.51a7.32,7.32,0,0,0,1.87-4.08,13,13,0,0,0-1.44-6.75A14,14,0,0,0,1021.81,40.83Z" style="fill:#ecb73f"/><path d="M1021.19,54.72a13.71,13.71,0,0,1-1.46-6,12.1,12.1,0,0,0,2.16,5.38,5.07,5.07,0,0,0,2.34,2.06,8.09,8.09,0,0,1-2.35-4.56,5.51,5.51,0,0,0,1.29,2.3c.43.39,1,.65,1.38,1.07a.89.89,0,0,1,.28.62.87.87,0,0,1-.36.58,2.07,2.07,0,0,1-2.05.26,1,1,0,0,1-.6-.63C1021.65,55.43,1021.38,55.09,1021.19,54.72Z" style="fill:#ecb73f"/><g style="opacity:0.46"><path d="M1018.85,47.47a1.21,1.21,0,0,0,.28.62.61.61,0,0,0,.63.18.7.7,0,0,0,.37-.37,3.12,3.12,0,0,0,0-1.82,11.48,11.48,0,0,1-.1-2.27A2.32,2.32,0,0,0,1020,43a.66.66,0,0,0-.61-.48,3.47,3.47,0,0,0-.12,1.12,9.57,9.57,0,0,1-.22,1.32A5.87,5.87,0,0,0,1018.85,47.47Z" style="fill:#fff"/></g><path d="M1014.65,44.7c-.23-.8-.41-1.63-.68-2.42-.19-.57-.42-1.12-.62-1.68a14.14,14.14,0,0,1-.72-3.39.69.69,0,0,1,.29.49,64.24,64.24,0,0,0,4.79,13,3.51,3.51,0,0,1,.47,1.42c0,.41-.38,1.05-.81.6s-.37-1.2-.5-1.61c-.44-1.38-1-2.72-1.46-4.08C1015.13,46.28,1014.87,45.5,1014.65,44.7Z" style="fill:#ffd345"/><path d="M1020.74,67.46c-2.53-2-3.39-5.49-3.55-8.72s.24-6.51-.44-9.67c.74,1.3,2.25,1.92,3.46,2.8a14.06,14.06,0,0,1,3.9,5,12.87,12.87,0,0,1,1.89,6.64,7.29,7.29,0,0,1-1.58,4.2C1023.36,69,1021.91,68.39,1020.74,67.46Z" style="fill:#ffd345"/><path d="M1020.19,51.87a20.38,20.38,0,0,1-2.9-2,54.63,54.63,0,0,0,4.54,5.72,15.47,15.47,0,0,1,2.49,5.15,6.28,6.28,0,0,1,.22,2.85,2.94,2.94,0,0,1-1.67,2.2,3,3,0,0,1-3-.65,7.2,7.2,0,0,1-1.77-2.6c-.3-.65-.57-1.31-.82-2,.37,2.66,1.32,5.29,3.39,6.94,1.17.94,2.62,1.51,3.68.27a7.3,7.3,0,0,0,1.59-4.2,13.1,13.1,0,0,0-1.89-6.64A14.28,14.28,0,0,0,1020.19,51.87Z" style="fill:#ecb73f"/><path d="M1020.51,65.77a13.59,13.59,0,0,1-1.86-5.88,12.08,12.08,0,0,0,2.52,5.23,5,5,0,0,0,2.47,1.89,8.11,8.11,0,0,1-2.66-4.38,5.5,5.5,0,0,0,1.45,2.2c.45.37,1,.58,1.44,1a.83.83,0,0,1,.33.59.88.88,0,0,1-.32.61,2.08,2.08,0,0,1-2,.4.94.94,0,0,1-.65-.59C1021,66.45,1020.72,66.14,1020.51,65.77Z" style="fill:#ecb73f"/><g style="opacity:0.46"><path d="M1017.68,58.7a1.27,1.27,0,0,0,.33.6.63.63,0,0,0,.64.14.67.67,0,0,0,.33-.39,3.1,3.1,0,0,0-.06-1.83,11.33,11.33,0,0,1-.26-2.25,2.32,2.32,0,0,0-.11-.83.69.69,0,0,0-.64-.44,3.3,3.3,0,0,0,0,1.13,8.7,8.7,0,0,1-.14,1.34A6,6,0,0,0,1017.68,58.7Z" style="fill:#fff"/></g><path d="M1047.27,58.21c.76-.37,1.49-.78,2.26-1.11.55-.23,1.12-.43,1.67-.66a13.63,13.63,0,0,0,3-1.72.7.7,0,0,0-.57.12,63.45,63.45,0,0,1-12.9,5.1,3.57,3.57,0,0,0-1.38.6c-.31.26-.52,1,.1,1,.43,0,1.14-.53,1.53-.7,1.32-.59,2.68-1.09,4-1.63C1045.77,58.9,1046.53,58.57,1047.27,58.21Z" style="fill:#ffd345"/><path d="M1026.25,68.83c3.18.53,6.34-1.13,8.86-3.16s4.7-4.52,7.51-6.12c-1.47.32-2.93-.4-4.4-.71a13.93,13.93,0,0,0-6.34.43,13,13,0,0,0-6.21,3,7.33,7.33,0,0,0-2.08,4C1023.37,67.88,1024.77,68.58,1026.25,68.83Z" style="fill:#ffd345"/><path d="M1038.24,58.86a21.57,21.57,0,0,0,3.46.79,54.58,54.58,0,0,1-7.29.43,15.42,15.42,0,0,0-5.51,1.57,6.45,6.45,0,0,0-2.27,1.73,2.93,2.93,0,0,0-.52,2.72,3,3,0,0,0,2.45,1.77,7.24,7.24,0,0,0,3.12-.41c.68-.21,1.36-.45,2-.71a10.44,10.44,0,0,1-7.44,2.1c-1.47-.25-2.87-.94-2.65-2.56a7.27,7.27,0,0,1,2.08-4,13,13,0,0,1,6.2-3A14.27,14.27,0,0,1,1038.24,58.86Z" style="fill:#ecb73f"/><path d="M1027.66,67.88a13.64,13.64,0,0,0,5.62-2.53,12.1,12.1,0,0,1-5.58,1.6,5,5,0,0,1-3.06-.58,8.2,8.2,0,0,0,5-.94,5.63,5.63,0,0,1-2.61.39c-.58-.1-1.11-.38-1.69-.43a.88.88,0,0,0-.66.15.85.85,0,0,0-.24.65,2,2,0,0,0,1,1.77.94.94,0,0,0,.87.09C1026.82,68,1027.24,68,1027.66,67.88Z" style="fill:#ecb73f"/><g style="opacity:0.46"><path d="M1030.8,61.81a1.93,1.93,0,0,0-.64.48.69.69,0,0,0-.09.75.85.85,0,0,0,.85.28,23.17,23.17,0,0,0,2.25-.8c.94-.22,2,0,2.79-.61a.48.48,0,0,0,.21-.35c0-.29-.36-.41-.65-.43A9.24,9.24,0,0,0,1030.8,61.81Z" style="fill:#fff"/></g><g style="opacity:0.46"><path d="M1032.63,53.34a2,2,0,0,0-.47.65.69.69,0,0,0,.14.74.84.84,0,0,0,.9,0c.72-.34,1.22-1,1.91-1.43s2-.6,2.48-1.41a.49.49,0,0,0,.1-.4c-.08-.28-.47-.28-.75-.22A9.21,9.21,0,0,0,1032.63,53.34Z" style="fill:#fff"/></g><g style="opacity:0.46"><path d="M1034.15,44.23a2.08,2.08,0,0,0-.46.65.67.67,0,0,0,.13.74.86.86,0,0,0,.9,0c.72-.34,1.22-1,1.91-1.43s1.95-.61,2.48-1.41a.5.5,0,0,0,.1-.4c-.08-.28-.47-.29-.75-.22A9.29,9.29,0,0,0,1034.15,44.23Z" style="fill:#fff"/></g><g style="opacity:0.46"><path d="M1036.05,34.15a2.1,2.1,0,0,0-.39.7.69.69,0,0,0,.22.72.87.87,0,0,0,.9-.09c.67-.42,1.1-1.16,1.73-1.64s1.87-.82,2.3-1.68a.5.5,0,0,0,.06-.41c-.11-.27-.5-.23-.78-.14A9.2,9.2,0,0,0,1036.05,34.15Z" style="fill:#fff"/></g><g style="opacity:0.46"><path d="M1037.17,24.48a1.91,1.91,0,0,0-.38.7.66.66,0,0,0,.21.72.85.85,0,0,0,.9-.09c.68-.42,1.1-1.16,1.74-1.64s1.86-.82,2.3-1.68a.5.5,0,0,0,0-.41c-.11-.27-.5-.23-.77-.14A9.38,9.38,0,0,0,1037.17,24.48Z" style="fill:#fff"/></g><path d="M921.66,112.53c-.59.51-1.16,1.06-1.78,1.54-.43.34-.89.66-1.33,1a14.64,14.64,0,0,0-2.33,2.26.69.69,0,0,0,.46-.25A67.47,67.47,0,0,1,927,109.34a3.72,3.72,0,0,0,1.1-.87c.23-.3.31-1-.22-.83-.37.1-.9.75-1.21,1-1,.85-2.14,1.63-3.21,2.45Q922.55,111.78,921.66,112.53Z" style="fill:#ffd345"/><path d="M938.17,98c-2.79.38-5.27,2.62-7.13,5s-3.4,5.08-5.59,7.19c1.21-.66,2.56-.43,3.85-.55a13.33,13.33,0,0,0,5.35-2,13.73,13.73,0,0,0,4.89-4.19,7.44,7.44,0,0,0,1.24-3.94C940.75,98,939.46,97.78,938.17,98Z" style="fill:#f4c541"/><path d="M929.28,109.61a18.31,18.31,0,0,0-3.06.23,51.61,51.61,0,0,1,6.17-2.28,16,16,0,0,0,4.48-2.78,6.94,6.94,0,0,0,1.7-2.08,2.7,2.7,0,0,0,.09-2.45,2.25,2.25,0,0,0-2.34-.87,7.14,7.14,0,0,0-2.6,1.17c-.56.36-1.1.74-1.63,1.14,1.7-1.87,3.77-3.44,6.06-3.75,1.29-.17,2.58,0,2.61,1.49a7.43,7.43,0,0,1-1.23,3.94,13.76,13.76,0,0,1-4.89,4.2A13.52,13.52,0,0,1,929.28,109.61Z" style="fill:#ecb73f"/><path d="M937.09,99.14a14.37,14.37,0,0,0-4.45,3.63,12.44,12.44,0,0,1,4.54-2.83,4.32,4.32,0,0,1,2.69-.31,8.1,8.1,0,0,0-4.18,2.13,5.59,5.59,0,0,1,2.17-1c.51-.07,1,0,1.51-.08a.74.74,0,0,0,.66-.91,1.51,1.51,0,0,0-1.14-1.24.87.87,0,0,0-.76.15C937.8,98.85,937.44,99,937.09,99.14Z" style="fill:#ecb73f"/><g style="opacity:0.46"><path d="M931.33,103.24a1.32,1.32,0,0,1,.55-.31.46.46,0,0,1,.51.19.69.69,0,0,1,0,.45,3.53,3.53,0,0,1-1,1.37,12.61,12.61,0,0,0-1.41,1.6,2.4,2.4,0,0,1-.52.58.58.58,0,0,1-.67,0,3.63,3.63,0,0,1,.58-.88,8.62,8.62,0,0,0,.64-1.09A6.43,6.43,0,0,1,931.33,103.24Z" style="fill:#fff"/></g><path d="M923.78,91.62c-.66-.18-1.32-.4-2-.56l-1.45-.28a11.34,11.34,0,0,1-2.69-1,.62.62,0,0,1,.48,0,52.56,52.56,0,0,0,11.19,2.21,2.89,2.89,0,0,1,1.2.28c.29.16.57.71.07.83a4.09,4.09,0,0,1-1.34-.35c-1.16-.27-2.33-.48-3.49-.72C925.09,92,924.43,91.81,923.78,91.62Z" style="fill:#ffd345"/><path d="M942.36,97.08c-2.5.91-5.3,0-7.64-1.24s-4.47-3-7-3.83c1.23,0,2.31-.75,3.45-1.23a11.66,11.66,0,0,1,5.19-.59,10.69,10.69,0,0,1,5.47,1.51,6,6,0,0,1,2.27,2.91C944.54,95.89,943.51,96.66,942.36,97.08Z" style="fill:#ffd345"/><path d="M931.18,90.8A17.37,17.37,0,0,1,928.5,92a46,46,0,0,0,6-.74,12.54,12.54,0,0,1,4.68.45,5.08,5.08,0,0,1,2.09,1.07,2.39,2.39,0,0,1,.83,2.11,2.48,2.48,0,0,1-1.72,1.8,6.06,6.06,0,0,1-2.58.13q-.87-.11-1.74-.27a8.62,8.62,0,0,0,6.32.59c1.16-.42,2.19-1.19,1.77-2.47a6,6,0,0,0-2.27-2.91,10.69,10.69,0,0,0-5.47-1.51A11.66,11.66,0,0,0,931.18,90.8Z" style="fill:#ecb73f"/><path d="M941.07,96.52a11.24,11.24,0,0,1-4.92-1.21,9.93,9.93,0,0,0,4.75.47,4.13,4.13,0,0,0,2.38-.93,6.66,6.66,0,0,1-4.21,0,4.63,4.63,0,0,0,2.16-.07c.45-.16.85-.47,1.31-.6a.73.73,0,0,1,.56,0,.68.68,0,0,1,.28.48,1.69,1.69,0,0,1-.58,1.59.76.76,0,0,1-.69.2C941.76,96.45,941.42,96.52,941.07,96.52Z" style="fill:#ecb73f"/><g style="opacity:0.46"><path d="M934.9,95.48a1.07,1.07,0,0,0,.56,0,.51.51,0,0,0,.37-.39.61.61,0,0,0-.13-.41,2.58,2.58,0,0,0-1.31-.73,9.58,9.58,0,0,1-1.69-.78,1.87,1.87,0,0,0-.63-.28.56.56,0,0,0-.58.26,2.75,2.75,0,0,0,.77.52,7,7,0,0,1,.88.67A4.92,4.92,0,0,0,934.9,95.48Z" style="fill:#fff"/></g><path d="M936.58,113.86c-.24.65-.44,1.31-.71,1.94-.19.46-.41.9-.61,1.35a11.71,11.71,0,0,0-.79,2.73.56.56,0,0,0,.27-.39,52.26,52.26,0,0,1,4.71-10.39,2.79,2.79,0,0,0,.47-1.14c0-.33-.25-.88-.63-.54s-.37,1-.5,1.29c-.45,1.11-1,2.18-1.45,3.27C937.07,112.59,936.81,113.22,936.58,113.86Z" style="fill:#ffd345"/><path d="M942.94,95.57c-2.2,1.51-3.11,4.29-3.44,6.93s-.19,5.36-.94,7.91c.69-1,2-1.44,3-2.09a11.66,11.66,0,0,0,3.5-3.88A10.75,10.75,0,0,0,947,99.11a6.1,6.1,0,0,0-1-3.54C945.17,94.49,944,94.88,942.94,95.57Z" style="fill:#ffd345"/><path d="M941.54,108.31a18.73,18.73,0,0,0-2.49,1.51,45.31,45.31,0,0,1,4.06-4.42,12.38,12.38,0,0,0,2.35-4.07,5.29,5.29,0,0,0,.36-2.32,2.44,2.44,0,0,0-1.24-1.91,2.5,2.5,0,0,0-2.46.36,5.92,5.92,0,0,0-1.61,2c-.29.51-.55,1-.79,1.57a8.59,8.59,0,0,1,3.19-5.49c1-.7,2.24-1.08,3,0a5.94,5.94,0,0,1,1,3.54,10.59,10.59,0,0,1-2,5.32A11.46,11.46,0,0,1,941.54,108.31Z" style="fill:#ecb73f"/><path d="M942.65,96.94a11.06,11.06,0,0,0-1.88,4.71,9.9,9.9,0,0,1,2.38-4.14,4.19,4.19,0,0,1,2.14-1.4,6.7,6.7,0,0,0-2.45,3.44,4.65,4.65,0,0,1,1.32-1.73c.4-.27.87-.41,1.25-.71a.73.73,0,0,0,.3-.47.66.66,0,0,0-.23-.51,1.67,1.67,0,0,0-1.63-.45.76.76,0,0,0-.57.45C943.1,96.42,942.84,96.66,942.65,96.94Z" style="fill:#ecb73f"/><g style="opacity:0.46"><path d="M939.9,102.57a1,1,0,0,1,.3-.47.51.51,0,0,1,.54-.08.58.58,0,0,1,.25.34,2.57,2.57,0,0,1-.16,1.49,8.83,8.83,0,0,0-.35,1.83,1.86,1.86,0,0,1-.14.67.56.56,0,0,1-.55.33,2.65,2.65,0,0,1,0-.93,10,10,0,0,0,0-1.1A4.86,4.86,0,0,1,939.9,102.57Z" style="fill:#fff"/></g><path d="M946.09,112.1c-.1.69-.16,1.39-.3,2.07-.1.49-.23,1-.33,1.45a11.06,11.06,0,0,0-.23,2.87.63.63,0,0,0,.18-.44A53.33,53.33,0,0,1,948,106.82a3.1,3.1,0,0,0,.24-1.23c0-.33-.43-.82-.74-.41s-.17,1-.24,1.38c-.21,1.18-.51,2.35-.77,3.52C946.33,110.75,946.19,111.42,946.09,112.1Z" style="fill:#ffd345"/><path d="M948.7,92.72c-1.86,1.93-2.21,4.87-2,7.55s.89,5.34.66,8c.47-1.15,1.65-1.81,2.56-2.67a11.69,11.69,0,0,0,2.68-4.55,10.77,10.77,0,0,0,.85-5.66,6,6,0,0,0-1.75-3.29C950.7,91.19,949.56,91.82,948.7,92.72Z" style="fill:#f4c541"/><path d="M949.89,105.61a17.17,17.17,0,0,0-2.16,2,44.37,44.37,0,0,1,3.13-5.2,12.74,12.74,0,0,0,1.51-4.5,5.41,5.41,0,0,0-.12-2.37,2.46,2.46,0,0,0-1.62-1.64,2.51,2.51,0,0,0-2.36.85,6.12,6.12,0,0,0-1.18,2.33c-.18.57-.33,1.14-.47,1.72a8.67,8.67,0,0,1,2.06-6.08c.86-.89,2-1.52,3-.61a6.12,6.12,0,0,1,1.75,3.29,10.68,10.68,0,0,1-.86,5.66A11.45,11.45,0,0,1,949.89,105.61Z" style="fill:#ecb73f"/><path d="M948.69,94.13a11.32,11.32,0,0,0-.91,5,10,10,0,0,1,1.52-4.57,4.2,4.2,0,0,1,1.84-1.82,6.73,6.73,0,0,0-1.73,3.89,4.6,4.6,0,0,1,1-2c.33-.35.78-.58,1.09-1a.72.72,0,0,0,.2-.52.76.76,0,0,0-.32-.47,1.72,1.72,0,0,0-1.71-.11.76.76,0,0,0-.47.56C949,93.52,948.83,93.81,948.69,94.13Z" style="fill:#ecb73f"/><g style="opacity:0.46"><path d="M947.11,100.26a1,1,0,0,1,.2-.53.53.53,0,0,1,.52-.19.64.64,0,0,1,.32.29,2.57,2.57,0,0,1,.13,1.51,9.83,9.83,0,0,0,0,1.88,1.78,1.78,0,0,1,0,.69.55.55,0,0,1-.48.44,2.92,2.92,0,0,1-.15-.93,6.54,6.54,0,0,0-.26-1.08A5,5,0,0,1,947.11,100.26Z" style="fill:#fff"/></g><path d="M953,109.39c-.1.69-.17,1.38-.31,2.06-.09.49-.23,1-.33,1.46a11.44,11.44,0,0,0-.23,2.86.53.53,0,0,0,.18-.44,53.47,53.47,0,0,1,2.57-11.23,2.89,2.89,0,0,0,.24-1.22c0-.34-.43-.82-.73-.41s-.18,1-.24,1.38c-.22,1.18-.52,2.34-.77,3.52C953.18,108,953.05,108.71,953,109.39Z" style="fill:#ffd345"/><path d="M955.55,90c-1.86,1.94-2.21,4.88-2,7.56s.88,5.33.66,8c.47-1.15,1.65-1.82,2.55-2.67a11.76,11.76,0,0,0,2.68-4.55,10.83,10.83,0,0,0,.85-5.67,6,6,0,0,0-1.75-3.29C957.55,88.48,956.42,89.11,955.55,90Z" style="fill:#f4c541"/><path d="M956.75,102.9a16.6,16.6,0,0,0-2.17,2,44.91,44.91,0,0,1,3.13-5.2,12.66,12.66,0,0,0,1.51-4.51,5.41,5.41,0,0,0-.12-2.37,2.48,2.48,0,0,0-1.61-1.63,2.5,2.5,0,0,0-2.37.85,6.05,6.05,0,0,0-1.18,2.33c-.18.56-.33,1.14-.46,1.71a8.61,8.61,0,0,1,2-6.07c.86-.9,2-1.53,3-.62a6.06,6.06,0,0,1,1.75,3.29,10.81,10.81,0,0,1-.85,5.67A11.76,11.76,0,0,1,956.75,102.9Z" style="fill:#ecb73f"/><path d="M955.54,91.42a11.28,11.28,0,0,0-.91,5,10.16,10.16,0,0,1,1.52-4.57A4.25,4.25,0,0,1,958,90.06a6.78,6.78,0,0,0-1.73,3.9,4.6,4.6,0,0,1,1-2c.34-.35.78-.59,1.09-1a.7.7,0,0,0,.2-.52.68.68,0,0,0-.32-.47,1.72,1.72,0,0,0-1.71-.11.76.76,0,0,0-.47.55C955.89,90.81,955.68,91.09,955.54,91.42Z" style="fill:#ecb73f"/><g style="opacity:0.46"><path d="M954,97.54a1,1,0,0,1,.21-.53.5.5,0,0,1,.51-.18.6.6,0,0,1,.32.29,2.64,2.64,0,0,1,.14,1.51,9.1,9.1,0,0,0,0,1.88,1.78,1.78,0,0,1,0,.69.56.56,0,0,1-.48.43,2.58,2.58,0,0,1-.16-.92,8.19,8.19,0,0,0-.25-1.09A4.78,4.78,0,0,1,954,97.54Z" style="fill:#fff"/></g><path d="M957.93,107.29c-.19.67-.34,1.35-.57,2-.16.47-.36.93-.52,1.39a11.39,11.39,0,0,0-.61,2.81.59.59,0,0,0,.24-.41,53.3,53.3,0,0,1,4-10.79,2.81,2.81,0,0,0,.4-1.18c0-.34-.31-.87-.67-.5s-.31,1-.42,1.33c-.37,1.15-.82,2.26-1.23,3.39C958.34,106,958.12,106.63,957.93,107.29Z" style="fill:#ffd345"/><path d="M963.09,88.42c-2.1,1.67-2.84,4.54-3,7.22s.17,5.41-.41,8c.62-1.08,1.88-1.59,2.89-2.32a11.68,11.68,0,0,0,3.26-4.15,10.77,10.77,0,0,0,1.6-5.5,6.06,6.06,0,0,0-1.3-3.49C965.27,87.18,964.07,87.65,963.09,88.42Z" style="fill:#ffd345"/><path d="M962.56,101.36a18.26,18.26,0,0,0-2.41,1.7,45.34,45.34,0,0,1,3.79-4.74,12.85,12.85,0,0,0,2.1-4.26,5.3,5.3,0,0,0,.19-2.37,2.43,2.43,0,0,0-1.38-1.83,2.49,2.49,0,0,0-2.45.52,6,6,0,0,0-1.49,2.16c-.25.53-.48,1.08-.68,1.63a8.68,8.68,0,0,1,2.84-5.75c1-.77,2.18-1.24,3-.2a6,6,0,0,1,1.3,3.49,10.8,10.8,0,0,1-1.6,5.5A11.57,11.57,0,0,1,962.56,101.36Z" style="fill:#ecb73f"/><path d="M962.89,89.82a11.41,11.41,0,0,0-1.57,4.88,10,10,0,0,1,2.12-4.33,4.17,4.17,0,0,1,2.06-1.56,6.74,6.74,0,0,0-2.23,3.63,4.77,4.77,0,0,1,1.21-1.83c.38-.3.85-.47,1.21-.8a.72.72,0,0,0,.27-.49.71.71,0,0,0-.26-.51,1.73,1.73,0,0,0-1.68-.34.78.78,0,0,0-.54.49C963.32,89.26,963.07,89.52,962.89,89.82Z" style="fill:#ecb73f"/><g style="opacity:0.46"><path d="M960.51,95.68a1,1,0,0,1,.28-.49.52.52,0,0,1,.53-.12.69.69,0,0,1,.28.33,2.64,2.64,0,0,1-.07,1.52,9.75,9.75,0,0,0-.22,1.87,1.93,1.93,0,0,1-.1.68.55.55,0,0,1-.53.36,2.64,2.64,0,0,1,0-.93,8,8,0,0,0-.11-1.11A5,5,0,0,1,960.51,95.68Z" style="fill:#fff"/></g><path d="M963.84,105.81c-.23.66-.42,1.33-.68,2-.18.47-.4.91-.59,1.37a11.57,11.57,0,0,0-.76,2.78.63.63,0,0,0,.27-.4A52.15,52.15,0,0,1,966.66,101a2.83,2.83,0,0,0,.46-1.16c0-.34-.27-.88-.64-.54s-.36,1-.49,1.32c-.43,1.12-.94,2.21-1.41,3.31C964.32,104.52,964.06,105.16,963.84,105.81Z" style="fill:#ffd345"/><path d="M970,87.23c-2.18,1.56-3.07,4.39-3.35,7.06s-.11,5.41-.82,8c.67-1.05,2-1.49,3-2.16a11.69,11.69,0,0,0,3.47-4,10.78,10.78,0,0,0,1.88-5.41A6.13,6.13,0,0,0,973,87.18C972.2,86.1,971,86.51,970,87.23Z" style="fill:#f4c541"/><path d="M968.77,100.13a17.54,17.54,0,0,0-2.5,1.56,44.25,44.25,0,0,1,4-4.53A12.74,12.74,0,0,0,972.61,93a5.26,5.26,0,0,0,.32-2.35,2.44,2.44,0,0,0-1.28-1.9,2.52,2.52,0,0,0-2.48.39,6.08,6.08,0,0,0-1.6,2.08c-.27.52-.53,1-.76,1.6a8.65,8.65,0,0,1,3.13-5.6c1-.72,2.24-1.13,3.06,0a6.07,6.07,0,0,1,1.12,3.56,10.87,10.87,0,0,1-1.88,5.41A11.8,11.8,0,0,1,968.77,100.13Z" style="fill:#ecb73f"/><path d="M969.69,88.62a11.34,11.34,0,0,0-1.82,4.79,10.06,10.06,0,0,1,2.34-4.22,4.18,4.18,0,0,1,2.14-1.45,6.68,6.68,0,0,0-2.41,3.51,4.48,4.48,0,0,1,1.3-1.76c.39-.28.87-.43,1.24-.74a.71.71,0,0,0,.3-.48.73.73,0,0,0-.23-.52,1.72,1.72,0,0,0-1.66-.42.79.79,0,0,0-.57.46C970.14,88.08,969.89,88.33,969.69,88.62Z" style="fill:#ecb73f"/><g style="opacity:0.46"><path d="M967,94.35a1,1,0,0,1,.3-.48.54.54,0,0,1,.54-.09.63.63,0,0,1,.26.34,2.62,2.62,0,0,1-.14,1.51,9.05,9.05,0,0,0-.32,1.86,2,2,0,0,1-.13.68.58.58,0,0,1-.56.33,2.91,2.91,0,0,1,0-.93,8.32,8.32,0,0,0-.05-1.12A5.12,5.12,0,0,1,967,94.35Z" style="fill:#fff"/></g><path d="M970,104.49c-.22.66-.41,1.33-.67,2-.19.46-.41.9-.6,1.36a11.67,11.67,0,0,0-.75,2.78.6.6,0,0,0,.26-.4,53,53,0,0,1,4.59-10.57,3.07,3.07,0,0,0,.46-1.16c0-.33-.27-.88-.65-.53s-.36,1-.49,1.31c-.43,1.12-.94,2.21-1.4,3.32C970.48,103.21,970.23,103.84,970,104.49Z" style="fill:#ffd345"/><path d="M976.13,85.92c-2.19,1.55-3.07,4.38-3.35,7s-.11,5.41-.83,8c.68-1,2-1.48,3-2.16a11.71,11.71,0,0,0,3.47-4,10.8,10.8,0,0,0,1.88-5.41,6.08,6.08,0,0,0-1.12-3.55C978.37,84.79,977.14,85.2,976.13,85.92Z" style="fill:#f4c541"/><path d="M974.93,98.81a17.48,17.48,0,0,0-2.49,1.57,46.13,46.13,0,0,1,4-4.54,12.49,12.49,0,0,0,2.32-4.15,5.1,5.1,0,0,0,.31-2.35,2.44,2.44,0,0,0-1.28-1.9,2.49,2.49,0,0,0-2.48.4,6.11,6.11,0,0,0-1.59,2.07c-.28.52-.54,1.06-.77,1.6a8.71,8.71,0,0,1,3.13-5.6c1-.72,2.25-1.13,3.07,0a6.13,6.13,0,0,1,1.11,3.56,10.74,10.74,0,0,1-1.88,5.41A11.69,11.69,0,0,1,974.93,98.81Z" style="fill:#ecb73f"/><path d="M975.86,87.3A11.21,11.21,0,0,0,974,92.09a10,10,0,0,1,2.33-4.21,4.18,4.18,0,0,1,2.14-1.46,6.82,6.82,0,0,0-2.41,3.52,4.71,4.71,0,0,1,1.3-1.77c.4-.28.88-.43,1.25-.74A.73.73,0,0,0,979,87a.7.7,0,0,0-.24-.51,1.72,1.72,0,0,0-1.66-.43.76.76,0,0,0-.56.46C976.31,86.77,976.05,87,975.86,87.3Z" style="fill:#ecb73f"/><g style="opacity:0.46"><path d="M973.17,93a1.11,1.11,0,0,1,.31-.48.49.49,0,0,1,.53-.08.53.53,0,0,1,.26.34,2.55,2.55,0,0,1-.14,1.51,10.37,10.37,0,0,0-.32,1.85,2,2,0,0,1-.13.68.55.55,0,0,1-.55.34,2.7,2.7,0,0,1,0-.94,7,7,0,0,0,0-1.12A5.13,5.13,0,0,1,973.17,93Z" style="fill:#fff"/></g><path d="M975.81,105.22c-.22.66-.42,1.33-.68,2-.18.46-.4.91-.59,1.36a11.22,11.22,0,0,0-.75,2.78.6.6,0,0,0,.26-.4,53.54,53.54,0,0,1,4.58-10.57,2.78,2.78,0,0,0,.46-1.16c0-.33-.26-.88-.64-.53s-.36,1-.49,1.31c-.43,1.12-.94,2.21-1.4,3.32C976.29,103.94,976,104.57,975.81,105.22Z" style="fill:#ffd345"/><path d="M981.94,86.65c-2.19,1.55-3.07,4.38-3.36,7s-.11,5.41-.82,8c.68-1,2-1.48,3-2.16a11.55,11.55,0,0,0,3.47-4,10.68,10.68,0,0,0,1.88-5.42A6,6,0,0,0,985,86.6C984.18,85.52,983,85.93,981.94,86.65Z" style="fill:#f4c541"/><path d="M980.74,99.54a18.17,18.17,0,0,0-2.5,1.57,45.62,45.62,0,0,1,4-4.53,12.43,12.43,0,0,0,2.31-4.16,5.25,5.25,0,0,0,.32-2.35,2.44,2.44,0,0,0-1.28-1.9,2.49,2.49,0,0,0-2.48.4,6.11,6.11,0,0,0-1.59,2.07c-.28.52-.54,1.06-.77,1.6a8.67,8.67,0,0,1,3.13-5.59c1-.72,2.24-1.14,3.06-.05a6,6,0,0,1,1.12,3.55,10.71,10.71,0,0,1-1.88,5.41A11.6,11.6,0,0,1,980.74,99.54Z" style="fill:#ecb73f"/><path d="M981.66,88a11.34,11.34,0,0,0-1.82,4.79,10.09,10.09,0,0,1,2.34-4.21,4.14,4.14,0,0,1,2.14-1.46,6.7,6.7,0,0,0-2.41,3.52,4.71,4.71,0,0,1,1.3-1.77c.4-.28.87-.43,1.25-.74a.73.73,0,0,0,.3-.47.75.75,0,0,0-.24-.52,1.72,1.72,0,0,0-1.66-.43.79.79,0,0,0-.57.46C982.12,87.5,981.86,87.74,981.66,88Z" style="fill:#ecb73f"/><g style="opacity:0.46"><path d="M979,93.76a1.19,1.19,0,0,1,.3-.48.51.51,0,0,1,.54-.08.57.57,0,0,1,.26.34,2.55,2.55,0,0,1-.14,1.51,9.68,9.68,0,0,0-.32,1.85,2,2,0,0,1-.13.68.55.55,0,0,1-.55.34,2.7,2.7,0,0,1,0-.94,6.88,6.88,0,0,0-.05-1.11A5.17,5.17,0,0,1,979,93.76Z" style="fill:#fff"/></g><path d="M980.49,105.21c-.31.62-.59,1.26-.93,1.87-.25.43-.52.85-.77,1.28a11.44,11.44,0,0,0-1.11,2.65.59.59,0,0,0,.31-.36,52.61,52.61,0,0,1,5.93-9.88,2.92,2.92,0,0,0,.6-1.09c.08-.33-.15-.91-.57-.62s-.48.93-.65,1.24c-.58,1.06-1.22,2.07-1.83,3.11C981.13,104,980.79,104.59,980.49,105.21Z" style="fill:#ffd345"/><path d="M989,87.59c-2.37,1.26-3.62,4-4.24,6.56s-.82,5.35-1.86,7.82c.8-1,2.13-1.21,3.26-1.74a11.84,11.84,0,0,0,4-3.5,10.78,10.78,0,0,0,2.57-5.12,6.08,6.08,0,0,0-.65-3.67C991.35,86.76,990.08,87,989,87.59Z" style="fill:#f4c541"/><path d="M986.11,100.22a17.62,17.62,0,0,0-2.68,1.23,43.82,43.82,0,0,1,4.59-4,12.67,12.67,0,0,0,2.83-3.82,5.13,5.13,0,0,0,.62-2.29,2.44,2.44,0,0,0-1-2.05,2.51,2.51,0,0,0-2.51.07,6,6,0,0,0-1.85,1.85c-.34.48-.67,1-1,1.49A8.68,8.68,0,0,1,989,87.59c1.09-.59,2.37-.83,3,.35a6.06,6.06,0,0,1,.64,3.67,10.74,10.74,0,0,1-2.57,5.12A11.62,11.62,0,0,1,986.11,100.22Z" style="fill:#ecb73f"/><path d="M988.53,88.93a11.32,11.32,0,0,0-2.43,4.51A10,10,0,0,1,989,89.57a4.14,4.14,0,0,1,2.31-1.17,6.8,6.8,0,0,0-2.85,3.17A4.79,4.79,0,0,1,990,90c.43-.22.92-.31,1.33-.57a.7.7,0,0,0,.36-.43.68.68,0,0,0-.17-.54,1.7,1.7,0,0,0-1.59-.64.77.77,0,0,0-.62.38C989.05,88.46,988.76,88.67,988.53,88.93Z" style="fill:#ecb73f"/><g style="opacity:0.46"><path d="M985.12,94.26a1.12,1.12,0,0,1,.37-.44.5.5,0,0,1,.54,0,.58.58,0,0,1,.21.37,2.54,2.54,0,0,1-.33,1.48,8.73,8.73,0,0,0-.56,1.8,1.85,1.85,0,0,1-.22.65.56.56,0,0,1-.59.26,2.88,2.88,0,0,1,.13-.92,6.94,6.94,0,0,0,.1-1.11A5.07,5.07,0,0,1,985.12,94.26Z" style="fill:#fff"/></g><path d="M985.28,105.88c-.37.6-.71,1.21-1.11,1.78-.28.41-.59.8-.88,1.21a11.05,11.05,0,0,0-1.35,2.54c.16,0,.26-.19.35-.33a51.86,51.86,0,0,1,6.85-9.3,2.77,2.77,0,0,0,.71-1c.1-.32-.08-.92-.53-.67s-.57.88-.77,1.18c-.68,1-1.41,1.95-2.12,2.92C986,104.74,985.64,105.3,985.28,105.88Z" style="fill:#ffd345"/><path d="M995.38,89.11c-2.53,1-4,3.6-4.87,6.14s-1.26,5.27-2.53,7.64c.9-.87,2.28-1,3.48-1.44a11.75,11.75,0,0,0,4.33-3.1,10.54,10.54,0,0,0,3-4.87,6,6,0,0,0-.37-3.72C997.87,88.51,996.55,88.64,995.38,89.11Z" style="fill:#f4c541"/><path d="M991.43,101.45a18.58,18.58,0,0,0-2.84,1,46.45,46.45,0,0,1,5-3.52,12.57,12.57,0,0,0,3.21-3.53,5.2,5.2,0,0,0,.82-2.23,2.48,2.48,0,0,0-.89-2.15,2.61,2.61,0,0,0-2.57-.17,6,6,0,0,0-2,1.67c-.39.45-.76.91-1.11,1.39a8.55,8.55,0,0,1,4.34-4.76c1.17-.48,2.49-.6,3.08.64a6,6,0,0,1,.36,3.73,10.43,10.43,0,0,1-3,4.86A11.73,11.73,0,0,1,991.43,101.45Z" style="fill:#ecb73f"/><path d="M994.81,90.41A11,11,0,0,0,992,94.67a9.87,9.87,0,0,1,3.24-3.59,4.35,4.35,0,0,1,2.45-.94A6.73,6.73,0,0,0,994.5,93a4.51,4.51,0,0,1,1.68-1.42c.46-.19,1-.23,1.41-.45a.71.71,0,0,0,.4-.4.69.69,0,0,0-.13-.55,1.8,1.8,0,0,0-1.57-.8.83.83,0,0,0-.67.33C995.38,90,995.07,90.17,994.81,90.41Z" style="fill:#ecb73f"/><g style="opacity:0.46"><path d="M990.9,95.4a1,1,0,0,1,.41-.4.5.5,0,0,1,.55,0,.56.56,0,0,1,.19.39,2.49,2.49,0,0,1-.46,1.44,9.39,9.39,0,0,0-.72,1.74,1.93,1.93,0,0,1-.27.64.57.57,0,0,1-.63.2,2.62,2.62,0,0,1,.21-.91,6.84,6.84,0,0,0,.19-1.1A4.94,4.94,0,0,1,990.9,95.4Z" style="fill:#fff"/></g><path d="M991.45,107.48c-.41.57-.79,1.16-1.22,1.7-.31.39-.65.76-1,1.14a11.27,11.27,0,0,0-1.52,2.45.57.57,0,0,0,.37-.31,52.33,52.33,0,0,1,7.46-8.81,2.82,2.82,0,0,0,.78-1c.12-.31,0-.93-.48-.7s-.63.84-.85,1.12c-.74,1-1.54,1.85-2.31,2.77Q992.05,106.66,991.45,107.48Z" style="fill:#ffd345"/><path d="M1002.66,91.43c-2.59.86-4.24,3.32-5.27,5.8s-1.62,5.17-3,7.44c1-.8,2.34-.85,3.56-1.19a11.68,11.68,0,0,0,4.52-2.81,10.57,10.57,0,0,0,3.36-4.65,6,6,0,0,0-.1-3.74C1005.18,91,1003.85,91,1002.66,91.43Z" style="fill:#f4c541"/><path d="M997.88,103.47a17.76,17.76,0,0,0-2.89.77,44.87,44.87,0,0,1,5.22-3.17,12.58,12.58,0,0,0,3.43-3.31,5.12,5.12,0,0,0,1-2.17,2.43,2.43,0,0,0-.73-2.2,2.59,2.59,0,0,0-2.54-.34,6.11,6.11,0,0,0-2.15,1.52c-.42.42-.82.86-1.2,1.31a8.54,8.54,0,0,1,4.65-4.45c1.19-.4,2.51-.44,3,.84a6,6,0,0,1,.1,3.74,10.57,10.57,0,0,1-3.36,4.65A11.75,11.75,0,0,1,997.88,103.47Z" style="fill:#ecb73f"/><path d="M1002,92.69a11.07,11.07,0,0,0-3.12,4.06,9.8,9.8,0,0,1,3.47-3.36,4.23,4.23,0,0,1,2.51-.77,6.65,6.65,0,0,0-3.35,2.67,4.48,4.48,0,0,1,1.77-1.32c.47-.15,1-.15,1.43-.34a.75.75,0,0,0,.43-.37.72.72,0,0,0-.09-.57,1.77,1.77,0,0,0-1.51-.89.78.78,0,0,0-.68.27C1002.6,92.3,1002.28,92.47,1002,92.69Z" style="fill:#ecb73f"/><g style="opacity:0.46"><path d="M997.77,97.41a1,1,0,0,1,.43-.38.52.52,0,0,1,.55.08.58.58,0,0,1,.16.4,2.55,2.55,0,0,1-.56,1.41,8.87,8.87,0,0,0-.84,1.69,2,2,0,0,1-.31.61.56.56,0,0,1-.64.16,2.69,2.69,0,0,1,.28-.9,7.73,7.73,0,0,0,.26-1.08A4.8,4.8,0,0,1,997.77,97.41Z" style="fill:#fff"/></g><path d="M927.36,85.34c-.74-.28-1.47-.6-2.22-.84-.53-.17-1.08-.3-1.62-.46a13.21,13.21,0,0,1-3-1.35.67.67,0,0,1,.53.06,59.49,59.49,0,0,0,12.53,3.62,3.27,3.27,0,0,1,1.34.44c.32.21.58.87,0,1-.4,0-1.11-.4-1.49-.52-1.29-.44-2.61-.78-3.91-1.17C928.82,85.85,928.08,85.61,927.36,85.34Z" style="fill:#ffd345"/><path d="M948,93.39c-2.93.79-6-.48-8.57-2.16s-4.8-3.81-7.57-5c1.4.16,2.7-.64,4-1.07a13.21,13.21,0,0,1,6-.15,12.14,12.14,0,0,1,6.08,2.26,6.84,6.84,0,0,1,2.29,3.54C950.57,92.25,949.33,93,948,93.39Z" style="fill:#ffd345"/><path d="M935.86,85.14a19.79,19.79,0,0,1-3.16,1,50.91,50.91,0,0,0,6.86-.24,14.25,14.25,0,0,1,5.28,1,5.92,5.92,0,0,1,2.28,1.41,2.78,2.78,0,0,1,.74,2.5,2.84,2.84,0,0,1-2.14,1.87,6.89,6.89,0,0,1-3-.11q-1-.2-2-.48a9.8,9.8,0,0,0,7.15,1.3c1.35-.36,2.6-1.14,2.25-2.63a6.84,6.84,0,0,0-2.3-3.54A12.08,12.08,0,0,0,941.84,85,13.26,13.26,0,0,0,935.86,85.14Z" style="fill:#ecb73f"/><path d="M946.57,92.63a12.78,12.78,0,0,1-5.49-1.87,11.31,11.31,0,0,0,5.36,1,4.75,4.75,0,0,0,2.81-.82,7.68,7.68,0,0,1-4.8-.43,5.19,5.19,0,0,0,2.47.13c.53-.14,1-.45,1.55-.55a.86.86,0,0,1,.63.08.83.83,0,0,1,.28.58,2,2,0,0,1-.83,1.76.87.87,0,0,1-.8.16C947.36,92.62,947,92.67,946.57,92.63Z" style="fill:#ecb73f"/><g style="opacity:0.46"><path d="M939.63,90.83a1.19,1.19,0,0,0,.64.09.56.56,0,0,0,.46-.41.62.62,0,0,0-.11-.47,2.9,2.9,0,0,0-1.41-1,10.88,10.88,0,0,1-1.85-1,2,2,0,0,0-.69-.38.63.63,0,0,0-.69.24,3.14,3.14,0,0,0,.83.66,7.5,7.5,0,0,1,.93.85A5.63,5.63,0,0,0,939.63,90.83Z" style="fill:#fff"/></g><path d="M935.1,80.64c-.72-.33-1.42-.7-2.15-1-.52-.21-1.06-.38-1.58-.58a12.64,12.64,0,0,1-2.87-1.55.7.7,0,0,1,.54.1,60.46,60.46,0,0,0,12.24,4.49,3.34,3.34,0,0,1,1.31.52c.29.24.51.91-.07,1-.41,0-1.08-.47-1.45-.62-1.26-.52-2.55-1-3.82-1.44C936.53,81.25,935.81,81,935.1,80.64Z" style="fill:#ffd345"/><path d="M955.1,90.11c-3,.58-6-.91-8.39-2.76s-4.53-4.13-7.21-5.56c1.39.26,2.75-.45,4.12-.78a13.13,13.13,0,0,1,6,.26,12.14,12.14,0,0,1,5.9,2.68,6.82,6.82,0,0,1,2,3.69C957.78,89.15,956.48,89.84,955.1,90.11Z" style="fill:#ffd345"/><path d="M943.6,81a20.13,20.13,0,0,1-3.23.82,50.41,50.41,0,0,0,6.86.24,14.28,14.28,0,0,1,5.21,1.34A6,6,0,0,1,954.61,85a2.76,2.76,0,0,1,.56,2.53,2.81,2.81,0,0,1-2.26,1.72A6.69,6.69,0,0,1,950,89c-.65-.18-1.29-.39-1.92-.62a9.78,9.78,0,0,0,7,1.8c1.38-.27,2.67-.95,2.43-2.47a6.9,6.9,0,0,0-2-3.69,12.19,12.19,0,0,0-5.9-2.68A13.26,13.26,0,0,0,943.6,81Z" style="fill:#ecb73f"/><path d="M953.76,89.25A12.93,12.93,0,0,1,948.41,87a11.28,11.28,0,0,0,5.28,1.37,4.77,4.77,0,0,0,2.86-.62,7.63,7.63,0,0,1-4.76-.76,5.33,5.33,0,0,0,2.46.31c.54-.11,1-.39,1.58-.45a.78.78,0,0,1,.62.13.81.81,0,0,1,.24.6,2,2,0,0,1-.94,1.69.87.87,0,0,1-.82.1C954.55,89.3,954.15,89.32,953.76,89.25Z" style="fill:#ecb73f"/><g style="opacity:0.46"><path d="M947,87a1.23,1.23,0,0,0,.63.13.6.6,0,0,0,.49-.38.68.68,0,0,0-.08-.48,2.92,2.92,0,0,0-1.35-1.06A10.9,10.9,0,0,1,944.89,84a2,2,0,0,0-.66-.43.64.64,0,0,0-.7.19,2.83,2.83,0,0,0,.78.72,9.3,9.3,0,0,1,.87.91A5.64,5.64,0,0,0,947,87Z" style="fill:#fff"/></g><path d="M944.27,76.31c-.66-.44-1.3-.9-2-1.3-.49-.28-1-.53-1.48-.81a13.09,13.09,0,0,1-2.6-2,.64.64,0,0,1,.51.17,60.14,60.14,0,0,0,11.43,6.26,3.38,3.38,0,0,1,1.22.71c.26.29.37,1-.2.93-.41,0-1-.62-1.35-.83-1.17-.7-2.37-1.33-3.56-2C945.58,77.12,944.91,76.73,944.27,76.31Z" style="fill:#ffd345"/><path d="M962.64,88.65c-3,.13-5.79-1.79-7.9-4s-3.85-4.76-6.29-6.57c1.33.46,2.78,0,4.18-.16a13.19,13.19,0,0,1,5.87,1.15,12.16,12.16,0,0,1,5.44,3.52,7,7,0,0,1,1.47,4C965.43,88.1,964,88.59,962.64,88.65Z" style="fill:#ffd345"/><path d="M952.61,78a19.75,19.75,0,0,1-3.31.33A48.92,48.92,0,0,0,956,79.54a14.13,14.13,0,0,1,5,2.11,6,6,0,0,1,1.92,1.88,2.75,2.75,0,0,1,.17,2.59,2.81,2.81,0,0,1-2.49,1.37,6.91,6.91,0,0,1-2.86-.75q-.91-.4-1.8-.9a9.82,9.82,0,0,0,6.69,2.83c1.4-.06,2.79-.55,2.77-2.08a7,7,0,0,0-1.47-4,12.26,12.26,0,0,0-5.44-3.53A13.29,13.29,0,0,0,952.61,78Z" style="fill:#ecb73f"/><path d="M961.43,87.6a12.88,12.88,0,0,1-4.95-3,11.44,11.44,0,0,0,5,2.14,4.72,4.72,0,0,0,2.93-.19,7.59,7.59,0,0,1-4.6-1.46,5.25,5.25,0,0,0,2.39.67c.55,0,1.08-.22,1.63-.21a.86.86,0,0,1,.6.22.82.82,0,0,1,.14.63,1.93,1.93,0,0,1-1.18,1.53.87.87,0,0,1-.83,0C962.21,87.77,961.81,87.72,961.43,87.6Z" style="fill:#ecb73f"/><g style="opacity:0.46"><path d="M955.06,84.34a1.1,1.1,0,0,0,.6.22.57.57,0,0,0,.54-.29.69.69,0,0,0,0-.49A3,3,0,0,0,955,82.53a10.73,10.73,0,0,1-1.57-1.44,2.19,2.19,0,0,0-.59-.51.65.65,0,0,0-.73.08,3.14,3.14,0,0,0,.67.83,9.54,9.54,0,0,1,.73,1A5.5,5.5,0,0,0,955.06,84.34Z" style="fill:#fff"/></g><path d="M953.49,72.49c-.59-.52-1.15-1.07-1.77-1.56-.44-.35-.91-.67-1.35-1a13.23,13.23,0,0,1-2.3-2.31.64.64,0,0,1,.48.25A60.69,60.69,0,0,0,959,75.68a3.2,3.2,0,0,1,1.1.89c.22.31.23,1-.33.89-.4-.1-.9-.77-1.22-1-1-.86-2.16-1.65-3.23-2.48C954.68,73.49,954.07,73,953.49,72.49Z" style="fill:#ffd345"/><path d="M969.91,87.33c-3-.3-5.47-2.59-7.24-5.06s-3.14-5.26-5.29-7.41c1.25.66,2.75.37,4.16.45a13.15,13.15,0,0,1,5.64,2,12.16,12.16,0,0,1,4.88,4.26,6.86,6.86,0,0,1,.89,4.13C972.75,87.19,971.31,87.48,969.91,87.33Z" style="fill:#ffd345"/><path d="M961.52,75.32a20.34,20.34,0,0,1-3.33-.14,48.75,48.75,0,0,0,6.5,2.2,14.37,14.37,0,0,1,4.6,2.79,5.82,5.82,0,0,1,1.62,2.13,2.78,2.78,0,0,1-.19,2.6,2.84,2.84,0,0,1-2.66,1,6.79,6.79,0,0,1-2.73-1.15q-.86-.54-1.65-1.14a9.81,9.81,0,0,0,6.21,3.75c1.4.14,2.84-.14,3-1.67a6.83,6.83,0,0,0-.89-4.12,12.19,12.19,0,0,0-4.88-4.27A13.29,13.29,0,0,0,961.52,75.32Z" style="fill:#ecb73f"/><path d="M968.87,86.12a12.85,12.85,0,0,1-4.47-3.68,11.47,11.47,0,0,0,4.66,2.83,4.74,4.74,0,0,0,2.92.23,7.66,7.66,0,0,1-4.34-2.1,5.28,5.28,0,0,0,2.26,1c.55.06,1.11-.06,1.65,0a.84.84,0,0,1,.56.3.81.81,0,0,1,0,.65,1.91,1.91,0,0,1-1.39,1.34.89.89,0,0,1-.81-.13C969.62,86.4,969.23,86.3,968.87,86.12Z" style="fill:#ecb73f"/><g style="opacity:0.46"><path d="M963,82a1.14,1.14,0,0,0,.56.3.57.57,0,0,0,.58-.21.68.68,0,0,0,.06-.49,2.88,2.88,0,0,0-1-1.4,10.85,10.85,0,0,1-1.36-1.65,2.18,2.18,0,0,0-.5-.59.62.62,0,0,0-.73,0,3,3,0,0,0,.54.91,9.19,9.19,0,0,1,.57,1.13A5.74,5.74,0,0,0,963,82Z" style="fill:#fff"/></g><path d="M963.31,68.15c-.47-.63-.91-1.29-1.42-1.9-.36-.43-.75-.83-1.11-1.26A12.9,12.9,0,0,1,959,62.26a.66.66,0,0,1,.42.34,60.29,60.29,0,0,0,8.6,9.8,3.22,3.22,0,0,1,.89,1.09c.15.35,0,1-.51.8-.37-.17-.72-.93-1-1.25C966.58,72,965.66,71,964.77,70,964.27,69.37,963.77,68.77,963.31,68.15Z" style="fill:#ffd345"/><path d="M976.34,86c-2.9-.92-4.83-3.66-6.06-6.44s-2-5.79-3.65-8.33c1.09.89,2.62.92,4,1.28a13.26,13.26,0,0,1,5.12,3.09,12.27,12.27,0,0,1,3.9,5.17,6.91,6.91,0,0,1,0,4.22C979.15,86.48,977.68,86.47,976.34,86Z" style="fill:#ffd345"/><path d="M970.58,72.56a19.1,19.1,0,0,1-3.23-.82,53.09,53.09,0,0,0,5.91,3.49,14.17,14.17,0,0,1,3.93,3.67,5.91,5.91,0,0,1,1.16,2.42,2.77,2.77,0,0,1-.73,2.5,2.84,2.84,0,0,1-2.8.43,6.83,6.83,0,0,1-2.44-1.69c-.48-.46-.94-1-1.38-1.45a9.8,9.8,0,0,0,5.32,4.94c1.33.43,2.8.44,3.31-1a6.81,6.81,0,0,0,0-4.21,12.16,12.16,0,0,0-3.9-5.18A13.12,13.12,0,0,0,970.58,72.56Z" style="fill:#ecb73f"/><path d="M975.57,84.64A12.83,12.83,0,0,1,972,80.12a11.36,11.36,0,0,0,4,3.73,4.78,4.78,0,0,0,2.81.82,7.68,7.68,0,0,1-3.81-3,5.21,5.21,0,0,0,2,1.45c.52.16,1.09.16,1.6.36A.85.85,0,0,1,979,84a.78.78,0,0,1-.08.63,1.94,1.94,0,0,1-1.64,1,.9.9,0,0,1-.77-.3C976.24,85.06,975.88,84.89,975.57,84.64Z" style="fill:#ecb73f"/><g style="opacity:0.46"><path d="M970.69,79.4a1.22,1.22,0,0,0,.49.41.58.58,0,0,0,.61-.09.71.71,0,0,0,.17-.46,3,3,0,0,0-.68-1.58,11,11,0,0,1-1-1.89,2.14,2.14,0,0,0-.37-.68.64.64,0,0,0-.72-.17,3.31,3.31,0,0,0,.35,1,8.81,8.81,0,0,1,.33,1.22A5.75,5.75,0,0,0,970.69,79.4Z" style="fill:#fff"/></g><path d="M972.56,66.77c-.39-.69-.75-1.39-1.18-2-.31-.48-.65-.92-1-1.39A13.22,13.22,0,0,1,969,60.41c.18,0,.29.22.38.38a60,60,0,0,0,7.39,10.75,3.32,3.32,0,0,1,.76,1.18c.11.37-.11,1-.6.74s-.61-1-.83-1.35c-.72-1.15-1.52-2.25-2.28-3.38C973.37,68.09,973,67.44,972.56,66.77Z" style="fill:#ffd345"/><path d="M983.4,86.06c-2.77-1.25-4.36-4.2-5.26-7.1s-1.3-6-2.65-8.71c1,1,2.49,1.22,3.8,1.75A13.13,13.13,0,0,1,984,75.66a12.16,12.16,0,0,1,3.27,5.6,6.85,6.85,0,0,1-.47,4.19C986.13,86.83,984.68,86.64,983.4,86.06Z" style="fill:#ffd345"/><path d="M979.27,72a20.63,20.63,0,0,1-3.11-1.19A49.37,49.37,0,0,0,981.62,75a14.58,14.58,0,0,1,3.47,4.11,6,6,0,0,1,.86,2.55,2.76,2.76,0,0,1-1,2.39,2.82,2.82,0,0,1-2.84.09,6.69,6.69,0,0,1-2.22-1.95c-.43-.52-.83-1.06-1.2-1.61a9.8,9.8,0,0,0,4.69,5.53c1.28.58,2.74.77,3.42-.61a6.85,6.85,0,0,0,.46-4.19,12.23,12.23,0,0,0-3.26-5.6A13.36,13.36,0,0,0,979.27,72Z" style="fill:#ecb73f"/><path d="M982.8,84.58a12.76,12.76,0,0,1-3.07-4.92,11.44,11.44,0,0,0,3.51,4.18,4.88,4.88,0,0,0,2.7,1.15,7.65,7.65,0,0,1-3.44-3.38,5.19,5.19,0,0,0,1.82,1.67c.5.23,1.07.29,1.55.55a.82.82,0,0,1,.43.47.81.81,0,0,1-.14.62,1.94,1.94,0,0,1-1.76.84.89.89,0,0,1-.72-.39C983.41,85.08,983.08,84.86,982.8,84.58Z" style="fill:#ecb73f"/><g style="opacity:0.46"><path d="M978.57,78.8a1.17,1.17,0,0,0,.44.47.6.6,0,0,0,.62,0,.64.64,0,0,0,.21-.44,2.85,2.85,0,0,0-.48-1.64,11.17,11.17,0,0,1-.76-2,2.32,2.32,0,0,0-.29-.73.64.64,0,0,0-.69-.25,3.17,3.17,0,0,0,.22,1,8.86,8.86,0,0,1,.19,1.24A5.6,5.6,0,0,0,978.57,78.8Z" style="fill:#fff"/></g><path d="M982,66.25c-.3-.73-.55-1.48-.88-2.19-.23-.52-.51-1-.74-1.52a12.43,12.43,0,0,1-1-3.09c.17.06.26.26.32.43a59.69,59.69,0,0,0,5.76,11.7,3.36,3.36,0,0,1,.58,1.28c0,.38-.25,1-.7.65s-.46-1.09-.62-1.46c-.55-1.24-1.18-2.45-1.77-3.67C982.56,67.68,982.24,67,982,66.25Z" style="fill:#ffd345"/><path d="M989.89,86.92c-2.56-1.64-3.71-4.79-4.17-7.8s-.42-6.11-1.37-9c.82,1.15,2.29,1.58,3.51,2.28A13.23,13.23,0,0,1,992,76.71a12.14,12.14,0,0,1,2.42,6,6.82,6.82,0,0,1-1.06,4.08C992.49,88.07,991.07,87.67,989.89,86.92Z" style="fill:#ffd345"/><path d="M987.84,72.41a20.05,20.05,0,0,1-2.91-1.64,49.27,49.27,0,0,0,4.8,4.9,14.55,14.55,0,0,1,2.84,4.57,6,6,0,0,1,.49,2.64,2.77,2.77,0,0,1-1.35,2.22,2.82,2.82,0,0,1-2.82-.31A6.87,6.87,0,0,1,987,82.53c-.34-.58-.66-1.16-1-1.77a9.8,9.8,0,0,0,3.84,6.16c1.19.76,2.6,1.16,3.47-.11a6.9,6.9,0,0,0,1.07-4.08,12.33,12.33,0,0,0-2.42-6A13.2,13.2,0,0,0,987.84,72.41Z" style="fill:#ecb73f"/><path d="M989.51,85.36a12.67,12.67,0,0,1-2.32-5.31,11.4,11.4,0,0,0,2.87,4.64,4.75,4.75,0,0,0,2.5,1.52,7.58,7.58,0,0,1-2.92-3.84,5.21,5.21,0,0,0,1.57,1.93c.46.29,1,.44,1.45.76a.84.84,0,0,1,.36.53.78.78,0,0,1-.24.6,2,2,0,0,1-1.85.57.9.9,0,0,1-.66-.49C990.05,86,989.75,85.68,989.51,85.36Z" style="fill:#ecb73f"/><g style="opacity:0.46"><path d="M986.17,79a1.22,1.22,0,0,0,.36.53.57.57,0,0,0,.61.07.67.67,0,0,0,.28-.4,2.89,2.89,0,0,0-.24-1.7,11.39,11.39,0,0,1-.47-2.08,2,2,0,0,0-.18-.76.63.63,0,0,0-.64-.35A3.17,3.17,0,0,0,986,75.4a7.57,7.57,0,0,1,0,1.26A5.58,5.58,0,0,0,986.17,79Z" style="fill:#fff"/></g><path d="M990.66,66.69c-.21-.77-.38-1.54-.62-2.29-.18-.53-.39-1.05-.58-1.58a13.38,13.38,0,0,1-.64-3.19.64.64,0,0,1,.26.47,60.31,60.31,0,0,0,4.41,12.27,3.25,3.25,0,0,1,.43,1.34c0,.38-.37,1-.77.56s-.33-1.14-.45-1.52c-.41-1.3-.9-2.57-1.34-3.85C991.1,68.17,990.86,67.43,990.66,66.69Z" style="fill:#ffd345"/><path d="M996.21,88.11c-2.35-1.92-3.14-5.18-3.27-8.21s.28-6.12-.34-9.1c.69,1.23,2.1,1.82,3.23,2.66a13.11,13.11,0,0,1,3.63,4.75,12.25,12.25,0,0,1,1.73,6.25,6.89,6.89,0,0,1-1.52,3.93C998.66,89.55,997.3,89,996.21,88.11Z" style="fill:#ffd345"/><path d="M995.81,73.46a20.11,20.11,0,0,1-2.71-1.95,51,51,0,0,0,4.22,5.41,14.42,14.42,0,0,1,2.31,4.86,6,6,0,0,1,.18,2.68,2.73,2.73,0,0,1-1.59,2.05,2.83,2.83,0,0,1-2.77-.63,6.81,6.81,0,0,1-1.64-2.46q-.42-.92-.75-1.86a9.8,9.8,0,0,0,3.13,6.55c1.09.89,2.44,1.44,3.45.28a6.82,6.82,0,0,0,1.52-3.93,12.05,12.05,0,0,0-1.73-6.25A13.29,13.29,0,0,0,995.81,73.46Z" style="fill:#ecb73f"/><path d="M996,86.52A12.87,12.87,0,0,1,994.3,81a11.52,11.52,0,0,0,2.33,4.93,4.67,4.67,0,0,0,2.31,1.79,7.56,7.56,0,0,1-2.46-4.14,5.22,5.22,0,0,0,1.34,2.09c.42.34.95.55,1.35.92a.83.83,0,0,1,.3.56.81.81,0,0,1-.3.57,2,2,0,0,1-1.91.36.87.87,0,0,1-.6-.56C996.48,87.16,996.21,86.87,996,86.52Z" style="fill:#ecb73f"/><g style="opacity:0.46"><path d="M993.4,79.86a1.13,1.13,0,0,0,.3.56.57.57,0,0,0,.6.14.62.62,0,0,0,.32-.37,2.86,2.86,0,0,0,0-1.71,10.82,10.82,0,0,1-.22-2.12,2.29,2.29,0,0,0-.1-.78.63.63,0,0,0-.6-.42,3.15,3.15,0,0,0,0,1.06,8.83,8.83,0,0,1-.14,1.26A5.62,5.62,0,0,0,993.4,79.86Z" style="fill:#fff"/></g><path d="M999.88,69c-.12-.78-.2-1.56-.36-2.33-.12-.55-.28-1.09-.4-1.64a13.12,13.12,0,0,1-.29-3.24.66.66,0,0,1,.21.49,60.07,60.07,0,0,0,3,12.68,3.19,3.19,0,0,1,.28,1.38c0,.39-.47.94-.82.48s-.21-1.17-.29-1.56c-.26-1.34-.6-2.65-.91-4C1000.16,70.49,1000,69.73,999.88,69Z" style="fill:#ffd345"/><path d="M1003,90.87c-2.13-2.17-2.55-5.49-2.34-8.52s.94-6.06.66-9.08c.55,1.3,1.89,2,2.92,3a13.27,13.27,0,0,1,3.08,5.11,12.1,12.1,0,0,1,1,6.41,6.88,6.88,0,0,1-1.94,3.74C1005.32,92.57,1004,91.87,1003,90.87Z" style="fill:#ffd345"/><path d="M1004.25,76.26a20.3,20.3,0,0,1-2.47-2.23,50.39,50.39,0,0,0,3.6,5.84,14.22,14.22,0,0,1,1.75,5.08,6,6,0,0,1-.11,2.69,2.77,2.77,0,0,1-1.8,1.87,2.85,2.85,0,0,1-2.69-.94,6.84,6.84,0,0,1-1.36-2.62c-.21-.64-.39-1.29-.54-1.94a9.8,9.8,0,0,0,2.39,6.86c1,1,2.27,1.7,3.4.66a6.89,6.89,0,0,0,2-3.75,12.28,12.28,0,0,0-1-6.4A13.28,13.28,0,0,0,1004.25,76.26Z" style="fill:#ecb73f"/><path d="M1003,89.27a12.78,12.78,0,0,1-1.08-5.69,11.25,11.25,0,0,0,1.77,5.15,4.72,4.72,0,0,0,2.1,2,7.59,7.59,0,0,1-2-4.39,5.16,5.16,0,0,0,1.1,2.22c.38.39.89.65,1.24,1.07a.68.68,0,0,1-.12,1.12,2,2,0,0,1-1.94.15.92.92,0,0,1-.54-.63C1003.41,90,1003.18,89.63,1003,89.27Z" style="fill:#ecb73f"/><g style="opacity:0.46"><path d="M1001.16,82.36a1.14,1.14,0,0,0,.24.59.55.55,0,0,0,.58.2.66.66,0,0,0,.36-.32,3,3,0,0,0,.14-1.71,10.93,10.93,0,0,1,0-2.14,1.86,1.86,0,0,0,0-.78.62.62,0,0,0-.55-.48,3.08,3.08,0,0,0-.16,1,8.75,8.75,0,0,1-.28,1.23A5.59,5.59,0,0,0,1001.16,82.36Z" style="fill:#fff"/></g><path d="M1098.14,46.11c.58-.53,1.19-1,1.74-1.59.4-.4.76-.83,1.16-1.23a12.45,12.45,0,0,1,2.54-2c0,.18-.16.33-.3.45a59.54,59.54,0,0,0-8.91,9.52,3.22,3.22,0,0,1-1,1c-.34.19-1,.12-.85-.42.13-.39.85-.82,1.14-1.1,1-1,1.88-2,2.81-3C1097,47.19,1097.56,46.64,1098.14,46.11Z" style="fill:#ffd345"/><path d="M1081.61,60.83c.63-3,3.17-5.16,5.81-6.65s5.57-2.55,7.94-4.46c-.78,1.17-.66,2.7-.89,4.09a13.25,13.25,0,0,1-2.57,5.39,12.18,12.18,0,0,1-4.77,4.39,6.81,6.81,0,0,1-4.2.44C1081.44,63.67,1081.31,62.21,1081.61,60.83Z" style="fill:#f4c541"/><path d="M1094.46,53.79a19.58,19.58,0,0,1,.5-3.3,50.75,50.75,0,0,0-2.89,6.22A14.39,14.39,0,0,1,1088.8,61a6,6,0,0,1-2.3,1.39,2.76,2.76,0,0,1-2.56-.48,2.83,2.83,0,0,1-.7-2.75,6.84,6.84,0,0,1,1.44-2.59c.42-.52.86-1,1.31-1.51a9.85,9.85,0,0,0-4.4,5.77c-.29,1.37-.16,2.84,1.33,3.2a6.85,6.85,0,0,0,4.19-.44,12.28,12.28,0,0,0,4.78-4.39A13.25,13.25,0,0,0,1094.46,53.79Z" style="fill:#ecb73f"/><path d="M1082.92,59.93a12.85,12.85,0,0,1,4.15-4,11.46,11.46,0,0,0-3.32,4.32,4.81,4.81,0,0,0-.55,2.88,7.63,7.63,0,0,1,2.57-4.08,5.17,5.17,0,0,0-1.25,2.14c-.11.54,0,1.1-.21,1.63a.78.78,0,0,1-.36.52.79.79,0,0,1-.64,0,1.94,1.94,0,0,1-1.19-1.53.92.92,0,0,1,.22-.8C1082.57,60.64,1082.71,60.26,1082.92,59.93Z" style="fill:#ecb73f"/><g style="opacity:0.46"><path d="M1087.67,54.56a1.22,1.22,0,0,0-.37.53.58.58,0,0,0,.16.6.68.68,0,0,0,.47.12,3,3,0,0,0,1.5-.83,10.51,10.51,0,0,1,1.78-1.17,2.07,2.07,0,0,0,.65-.44.63.63,0,0,0,.1-.72,3.24,3.24,0,0,0-1,.43,8.43,8.43,0,0,1-1.18.45A5.6,5.6,0,0,0,1087.67,54.56Z" style="fill:#fff"/></g><path d="M1098.36,60.89c.65-.12,1.3-.21,1.93-.37.45-.11.9-.26,1.35-.38a10.92,10.92,0,0,1,2.67-.34.53.53,0,0,1-.4.19,50.39,50.39,0,0,0-10.42,2.9,2.81,2.81,0,0,1-1.13.28c-.32,0-.79-.37-.42-.67s1-.21,1.29-.29c1.09-.25,2.17-.58,3.26-.87C1097.11,61.17,1097.73,61,1098.36,60.89Z" style="fill:#ffd345"/><path d="M1080.31,64.18c1.73-1.83,4.48-2.28,7-2.2s5,.6,7.54.27c-1.06.49-1.63,1.62-2.39,2.51a11,11,0,0,1-4.15,2.71,10.14,10.14,0,0,1-5.27,1,5.73,5.73,0,0,1-3.16-1.5C1079,66.12,1079.51,65,1080.31,64.18Z" style="fill:#ffd345"/><path d="M1092.45,64.74a16,16,0,0,1,1.78-2.12,42,42,0,0,0-4.73,3.16,12,12,0,0,1-4.16,1.61,4.8,4.8,0,0,1-2.23,0,2.28,2.28,0,0,1-1.6-1.44,2.35,2.35,0,0,1,.69-2.25,5.67,5.67,0,0,1,2.14-1.21c.52-.19,1.05-.36,1.58-.51a8.19,8.19,0,0,0-5.61,2.19c-.8.85-1.34,1.94-.44,2.84a5.73,5.73,0,0,0,3.16,1.5,10.12,10.12,0,0,0,5.27-1A11,11,0,0,0,1092.45,64.74Z" style="fill:#ecb73f"/><path d="M1081.64,64.11a10.52,10.52,0,0,1,4.68-1.07,9.46,9.46,0,0,0-4.22,1.62,4,4,0,0,0-1.62,1.8,6.31,6.31,0,0,1,3.57-1.78,4.28,4.28,0,0,0-1.8,1c-.32.33-.52.76-.85,1.06a.56.56,0,0,1-.94-.07,1.61,1.61,0,0,1-.18-1.6.74.74,0,0,1,.5-.46C1081.08,64.46,1081.34,64.25,1081.64,64.11Z" style="fill:#ecb73f"/><g style="opacity:0.46"><path d="M1087.31,62.36a.88.88,0,0,0-.49.22.47.47,0,0,0-.15.48.55.55,0,0,0,.29.29,2.36,2.36,0,0,0,1.42.06,9.39,9.39,0,0,1,1.76,0,1.77,1.77,0,0,0,.65,0,.51.51,0,0,0,.38-.47,2.53,2.53,0,0,0-.87-.1,7.18,7.18,0,0,1-1-.19A4.66,4.66,0,0,0,1087.31,62.36Z" style="fill:#fff"/></g><path d="M1094,67.3c.65-.06,1.3-.08,2-.17.46-.07.92-.17,1.38-.24a11.08,11.08,0,0,1,2.7-.06.57.57,0,0,1-.42.15,49.31,49.31,0,0,0-10.66,1.8,2.72,2.72,0,0,1-1.16.15c-.31-.05-.75-.44-.35-.7s1-.11,1.31-.15c1.12-.14,2.23-.36,3.34-.54C1092.68,67.44,1093.32,67.35,1094,67.3Z" style="fill:#ffd345"/><path d="M1075.66,68.69c1.91-1.64,4.69-1.81,7.18-1.46s5,1.12,7.48,1c-1.11.38-1.8,1.45-2.65,2.25a11,11,0,0,1-4.4,2.26,10,10,0,0,1-5.35.5,5.71,5.71,0,0,1-3-1.82C1074.13,70.48,1074.78,69.45,1075.66,68.69Z" style="fill:#f4c541"/><path d="M1087.68,70.51a15.57,15.57,0,0,1,2-1.92,41.22,41.22,0,0,0-5,2.65,12.12,12.12,0,0,1-4.3,1.17,5,5,0,0,1-2.22-.24,2.31,2.31,0,0,1-1.44-1.6,2.34,2.34,0,0,1,.92-2.17,5.69,5.69,0,0,1,2.25-1c.54-.14,1.08-.25,1.63-.34a8.11,8.11,0,0,0-5.8,1.59c-.89.76-1.54,1.79-.74,2.78a5.75,5.75,0,0,0,3,1.82,10.12,10.12,0,0,0,5.35-.5A11.09,11.09,0,0,0,1087.68,70.51Z" style="fill:#ecb73f"/><path d="M1077,68.76a10.42,10.42,0,0,1,4.76-.58,9.34,9.34,0,0,0-4.36,1.18,3.94,3.94,0,0,0-1.8,1.62,6.3,6.3,0,0,1,3.74-1.41,4.4,4.4,0,0,0-1.9.79c-.34.3-.59.7-1,1a.65.65,0,0,1-.51.16.61.61,0,0,1-.41-.33,1.58,1.58,0,0,1,0-1.6.74.74,0,0,1,.55-.41C1076.4,69.05,1076.68,68.87,1077,68.76Z" style="fill:#ecb73f"/><g style="opacity:0.46"><path d="M1082.81,67.61a.93.93,0,0,0-.51.16.5.5,0,0,0-.2.47.59.59,0,0,0,.26.32,2.45,2.45,0,0,0,1.4.21,8.64,8.64,0,0,1,1.76.12,1.8,1.8,0,0,0,.65,0,.52.52,0,0,0,.43-.43,2.7,2.7,0,0,0-.86-.2,7.12,7.12,0,0,1-1-.29A4.46,4.46,0,0,0,1082.81,67.61Z" style="fill:#fff"/></g><path d="M1089.23,73.59c.65,0,1.3,0,2,0,.46,0,.93-.08,1.39-.1a11,11,0,0,1,2.69.19.5.5,0,0,1-.43.11,49.92,49.92,0,0,0-10.78.77,2.73,2.73,0,0,1-1.17,0c-.31-.08-.7-.52-.28-.74s1,0,1.32,0c1.12,0,2.25-.14,3.37-.21C1087.94,73.62,1088.58,73.59,1089.23,73.59Z" style="fill:#ffd345"/><path d="M1070.88,73.23c2.06-1.45,4.84-1.35,7.29-.77s4.82,1.59,7.34,1.76c-1.14.27-1.93,1.27-2.85,2a11,11,0,0,1-4.6,1.83,10.19,10.19,0,0,1-5.37,0,5.6,5.6,0,0,1-2.8-2.1C1069.18,74.86,1069.93,73.9,1070.88,73.23Z" style="fill:#f4c541"/><path d="M1082.67,76.19a16.06,16.06,0,0,1,2.16-1.73,42.57,42.57,0,0,0-5.27,2.16,12,12,0,0,1-4.39.75,4.77,4.77,0,0,1-2.18-.45,2.28,2.28,0,0,1-1.28-1.73,2.33,2.33,0,0,1,1.12-2.07,5.62,5.62,0,0,1,2.33-.76c.55-.08,1.1-.14,1.66-.18a8.1,8.1,0,0,0-5.93,1c-1,.67-1.7,1.63-1,2.69a5.69,5.69,0,0,0,2.8,2.1,10.19,10.19,0,0,0,5.37,0A11.07,11.07,0,0,0,1082.67,76.19Z" style="fill:#ecb73f"/><path d="M1072.19,73.42a10.56,10.56,0,0,1,4.81-.12,9.38,9.38,0,0,0-4.46.76,3.88,3.88,0,0,0-2,1.44,6.21,6.21,0,0,1,3.86-1,4.33,4.33,0,0,0-2,.6c-.37.26-.65.64-1,.87a.66.66,0,0,1-.52.12.69.69,0,0,1-.38-.37,1.59,1.59,0,0,1,.14-1.6.71.71,0,0,1,.58-.36C1071.58,73.65,1071.88,73.5,1072.19,73.42Z" style="fill:#ecb73f"/><g style="opacity:0.46"><path d="M1078.1,72.83a.93.93,0,0,0-.52.12.47.47,0,0,0-.24.45.53.53,0,0,0,.22.33,2.32,2.32,0,0,0,1.38.35,9.3,9.3,0,0,1,1.74.29,1.75,1.75,0,0,0,.64.1.52.52,0,0,0,.47-.39,2.44,2.44,0,0,0-.84-.27,8.93,8.93,0,0,1-1-.39A4.5,4.5,0,0,0,1078.1,72.83Z" style="fill:#fff"/></g><path d="M1084.39,80.45c.65.11,1.29.25,1.94.33.46,0,.93.07,1.39.12a10.81,10.81,0,0,1,2.63.61.54.54,0,0,1-.45,0,49.89,49.89,0,0,0-10.77-.93,2.83,2.83,0,0,1-1.16-.13c-.29-.13-.61-.62-.15-.78s1,.14,1.3.19c1.12.14,2.24.21,3.36.32C1083.12,80.28,1083.76,80.35,1084.39,80.45Z" style="fill:#ffd345"/><path d="M1066.33,77.23c2.26-1.11,5-.58,7.32.38s4.52,2.32,7,2.88c-1.16.1-2.1,1-3.12,1.52a11,11,0,0,1-4.83,1.09,10.11,10.11,0,0,1-5.31-.86,5.62,5.62,0,0,1-2.43-2.51C1064.4,78.58,1065.29,77.74,1066.33,77.23Z" style="fill:#ffd345"/><path d="M1077.51,82a16.38,16.38,0,0,1,2.4-1.36,42.51,42.51,0,0,0-5.53,1.3,12,12,0,0,1-4.46.06,4.8,4.8,0,0,1-2.08-.79,2.26,2.26,0,0,1-1-1.9,2.32,2.32,0,0,1,1.43-1.87,5.53,5.53,0,0,1,2.42-.39c.56,0,1.11,0,1.67.08a8.12,8.12,0,0,0-6,.09c-1,.51-1.93,1.34-1.41,2.5a5.64,5.64,0,0,0,2.44,2.51,10.09,10.09,0,0,0,5.31.86A11.09,11.09,0,0,0,1077.51,82Z" style="fill:#ecb73f"/><path d="M1067.6,77.62a10.73,10.73,0,0,1,4.76.63,9.47,9.47,0,0,0-4.52,0,4,4,0,0,0-2.15,1.12,6.38,6.38,0,0,1,4-.42,4.27,4.27,0,0,0-2,.29c-.4.2-.74.53-1.16.7a.75.75,0,0,1-.53,0,.67.67,0,0,1-.32-.43A1.61,1.61,0,0,1,1066,78a.74.74,0,0,1,.63-.26C1067,77.76,1067.27,77.66,1067.6,77.62Z" style="fill:#ecb73f"/><g style="opacity:0.46"><path d="M1073.52,78a1.06,1.06,0,0,0-.53,0,.46.46,0,0,0-.31.4.53.53,0,0,0,.17.37,2.36,2.36,0,0,0,1.3.56,9,9,0,0,1,1.68.56,1.54,1.54,0,0,0,.62.19.52.52,0,0,0,.52-.3,2.77,2.77,0,0,0-.78-.41,7.33,7.33,0,0,1-.9-.53A4.54,4.54,0,0,0,1073.52,78Z" style="fill:#fff"/></g><path d="M1079.53,84.86c.65.1,1.29.25,1.93.32l1.4.12a10.73,10.73,0,0,1,2.62.61.52.52,0,0,1-.44,0,49.89,49.89,0,0,0-10.77-.93,2.83,2.83,0,0,1-1.16-.13c-.29-.13-.61-.62-.16-.77s1,.14,1.3.18c1.12.14,2.25.21,3.37.32C1078.26,84.68,1078.9,84.75,1079.53,84.86Z" style="fill:#ffd345"/><path d="M1061.47,81.63c2.26-1.11,5-.58,7.32.38s4.51,2.32,7,2.89c-1.17.09-2.1.95-3.12,1.51a10.81,10.81,0,0,1-4.83,1.09,10,10,0,0,1-5.31-.86,5.67,5.67,0,0,1-2.44-2.5C1059.54,83,1060.42,82.15,1061.47,81.63Z" style="fill:#ffd345"/><path d="M1072.64,86.39a17,17,0,0,1,2.41-1.36,41.17,41.17,0,0,0-5.54,1.31,11.69,11.69,0,0,1-4.45,0,5,5,0,0,1-2.09-.78,2.1,2.1,0,0,1,.44-3.78,5.53,5.53,0,0,1,2.42-.39c.56,0,1.11,0,1.66.08a8.1,8.1,0,0,0-6,.09c-1,.51-1.94,1.35-1.41,2.51a5.67,5.67,0,0,0,2.44,2.5,10,10,0,0,0,5.3.86A10.75,10.75,0,0,0,1072.64,86.39Z" style="fill:#ecb73f"/><path d="M1062.73,82a10.57,10.57,0,0,1,4.76.63,9.3,9.3,0,0,0-4.51,0,4,4,0,0,0-2.16,1.11,6.41,6.41,0,0,1,4-.42,4.37,4.37,0,0,0-2,.29c-.4.2-.74.53-1.16.7a.66.66,0,0,1-.53,0,.62.62,0,0,1-.32-.42,1.6,1.6,0,0,1,.38-1.56.74.74,0,0,1,.64-.27C1062.09,82.16,1062.41,82.06,1062.73,82Z" style="fill:#ecb73f"/><g style="opacity:0.46"><path d="M1068.66,82.37a1,1,0,0,0-.53,0,.47.47,0,0,0-.31.41.57.57,0,0,0,.16.36,2.43,2.43,0,0,0,1.31.56,9,9,0,0,1,1.68.56,1.69,1.69,0,0,0,.61.2.54.54,0,0,0,.53-.31,2.77,2.77,0,0,0-.78-.41,6.25,6.25,0,0,1-.9-.53A4.51,4.51,0,0,0,1068.66,82.37Z" style="fill:#fff"/></g><path d="M1075.51,89.62c.65.11,1.29.25,1.94.32.46,0,.93.07,1.39.12a10.81,10.81,0,0,1,2.63.61.54.54,0,0,1-.45,0,49.26,49.26,0,0,0-10.77-.92,2.67,2.67,0,0,1-1.16-.14c-.29-.13-.61-.62-.16-.77s1,.14,1.31.18c1.11.14,2.24.21,3.36.32C1074.24,89.44,1074.88,89.51,1075.51,89.62Z" style="fill:#ffd345"/><path d="M1057.45,86.39c2.26-1.11,5-.58,7.32.38s4.51,2.32,7,2.89c-1.17.09-2.1,1-3.12,1.51a11,11,0,0,1-4.83,1.1,10.19,10.19,0,0,1-5.31-.86A5.74,5.74,0,0,1,1056,88.9C1055.52,87.74,1056.4,86.91,1057.45,86.39Z" style="fill:#f4c541"/><path d="M1068.63,91.15a16.38,16.38,0,0,1,2.4-1.36,42.8,42.8,0,0,0-5.54,1.31,11.69,11.69,0,0,1-4.45.05,5,5,0,0,1-2.09-.78,2.29,2.29,0,0,1-1-1.91,2.35,2.35,0,0,1,1.43-1.87,5.84,5.84,0,0,1,2.42-.39c.56,0,1.11,0,1.67.08a8.12,8.12,0,0,0-6,.09c-1,.52-1.93,1.35-1.41,2.51a5.67,5.67,0,0,0,2.44,2.5,10,10,0,0,0,5.31.86A10.81,10.81,0,0,0,1068.63,91.15Z" style="fill:#ecb73f"/><path d="M1058.72,86.79a10.59,10.59,0,0,1,4.76.63,9.34,9.34,0,0,0-4.52,0,4,4,0,0,0-2.16,1.11,6.41,6.41,0,0,1,4-.42,4.39,4.39,0,0,0-2,.29c-.4.2-.74.53-1.16.7a.66.66,0,0,1-.53,0,.62.62,0,0,1-.32-.42,1.6,1.6,0,0,1,.39-1.56.72.72,0,0,1,.63-.26C1058.07,86.92,1058.39,86.82,1058.72,86.79Z" style="fill:#ecb73f"/><g style="opacity:0.46"><path d="M1064.64,87.13a1,1,0,0,0-.53,0,.47.47,0,0,0-.31.41.57.57,0,0,0,.16.36,2.43,2.43,0,0,0,1.31.56,9,9,0,0,1,1.68.56,1.73,1.73,0,0,0,.62.2.52.52,0,0,0,.52-.31,2.51,2.51,0,0,0-.78-.4,7.39,7.39,0,0,1-.9-.54A4.65,4.65,0,0,0,1064.64,87.13Z" style="fill:#fff"/></g><path d="M1070.65,94c.64.11,1.28.25,1.93.33.47,0,.93.07,1.4.11a11.23,11.23,0,0,1,2.62.62.55.55,0,0,1-.44,0,49.89,49.89,0,0,0-10.77-.93,2.67,2.67,0,0,1-1.16-.14c-.29-.12-.61-.61-.16-.77s1,.14,1.3.18c1.12.15,2.25.22,3.37.32C1069.38,93.83,1070,93.9,1070.65,94Z" style="fill:#ffd345"/><path d="M1052.59,90.78c2.26-1.11,5-.58,7.32.38s4.51,2.32,7,2.88c-1.17.09-2.1,1-3.12,1.52a11.1,11.1,0,0,1-4.84,1.09,10.16,10.16,0,0,1-5.3-.86,5.69,5.69,0,0,1-2.44-2.51C1050.65,92.12,1051.54,91.29,1052.59,90.78Z" style="fill:#ffd345"/><path d="M1063.76,95.54a17,17,0,0,1,2.41-1.36,42.76,42.76,0,0,0-5.54,1.3,11.94,11.94,0,0,1-4.46.06,4.84,4.84,0,0,1-2.08-.79,2.09,2.09,0,0,1,.44-3.77,5.53,5.53,0,0,1,2.42-.39c.55,0,1.11,0,1.66.07a8.15,8.15,0,0,0-6,.1c-1,.51-1.94,1.34-1.41,2.5a5.69,5.69,0,0,0,2.44,2.51,10.16,10.16,0,0,0,5.3.86A11.06,11.06,0,0,0,1063.76,95.54Z" style="fill:#ecb73f"/><path d="M1053.85,91.17a10.57,10.57,0,0,1,4.76.63,9.43,9.43,0,0,0-4.51,0,3.93,3.93,0,0,0-2.16,1.12,6.26,6.26,0,0,1,4-.42,4.37,4.37,0,0,0-2,.28,11.66,11.66,0,0,1-1.17.7.68.68,0,0,1-.52,0,.69.69,0,0,1-.33-.43,1.63,1.63,0,0,1,.39-1.56.76.76,0,0,1,.64-.26C1053.21,91.31,1053.53,91.2,1053.85,91.17Z" style="fill:#ecb73f"/><g style="opacity:0.46"><path d="M1059.78,91.51a1,1,0,0,0-.53,0,.46.46,0,0,0-.31.4.52.52,0,0,0,.16.37,2.43,2.43,0,0,0,1.31.56,8.86,8.86,0,0,1,1.67.56,1.72,1.72,0,0,0,.62.19.53.53,0,0,0,.53-.3,2.77,2.77,0,0,0-.78-.41,6.31,6.31,0,0,1-.9-.54A4.8,4.8,0,0,0,1059.78,91.51Z" style="fill:#fff"/></g><path d="M1066.9,98.78c.65.11,1.29.25,1.94.32.46.06.93.08,1.39.12a10.83,10.83,0,0,1,2.63.62.58.58,0,0,1-.45,0,49.89,49.89,0,0,0-10.77-.93,2.67,2.67,0,0,1-1.16-.14c-.29-.12-.61-.61-.15-.77s1,.14,1.3.18c1.12.15,2.24.22,3.36.32C1065.63,98.6,1066.27,98.68,1066.9,98.78Z" style="fill:#ffd345"/><path d="M1048.84,95.56c2.26-1.12,5-.58,7.32.38s4.52,2.32,7,2.88c-1.16.09-2.1,1-3.12,1.52a11.09,11.09,0,0,1-4.83,1.09,10.21,10.21,0,0,1-5.31-.86,5.72,5.72,0,0,1-2.43-2.51C1046.91,96.9,1047.8,96.07,1048.84,95.56Z" style="fill:#f4c541"/><path d="M1060,100.32a15.51,15.51,0,0,1,2.4-1.36,40.89,40.89,0,0,0-5.53,1.3,12,12,0,0,1-4.46.06,4.8,4.8,0,0,1-2.08-.79,2.26,2.26,0,0,1-1-1.91,2.35,2.35,0,0,1,1.43-1.87,5.86,5.86,0,0,1,2.43-.39c.55,0,1.11,0,1.66.08a8.12,8.12,0,0,0-6,.1c-1,.51-1.93,1.34-1.41,2.5a5.69,5.69,0,0,0,2.44,2.51,10.21,10.21,0,0,0,5.31.86A11.09,11.09,0,0,0,1060,100.32Z" style="fill:#ecb73f"/><path d="M1050.11,96a10.57,10.57,0,0,1,4.76.63,9.47,9.47,0,0,0-4.52,0,3.9,3.9,0,0,0-2.15,1.12,6.24,6.24,0,0,1,4-.42,4.22,4.22,0,0,0-2,.28c-.41.21-.75.53-1.17.7a.7.7,0,0,1-.53,0,.71.71,0,0,1-.32-.43,1.61,1.61,0,0,1,.39-1.56.73.73,0,0,1,.63-.26C1049.46,96.08,1049.78,96,1050.11,96Z" style="fill:#ecb73f"/><g style="opacity:0.46"><path d="M1056,96.29a1,1,0,0,0-.53,0,.46.46,0,0,0-.31.4.53.53,0,0,0,.17.37,2.38,2.38,0,0,0,1.31.55,10,10,0,0,1,1.67.57,1.94,1.94,0,0,0,.62.19.52.52,0,0,0,.52-.3,2.53,2.53,0,0,0-.78-.41,6.92,6.92,0,0,1-.9-.54A4.66,4.66,0,0,0,1056,96.29Z" style="fill:#fff"/></g><path d="M1085.48,47.1c.18-.63.33-1.26.54-1.88.16-.44.34-.87.5-1.31a11.26,11.26,0,0,0,.59-2.63.54.54,0,0,0-.23.38A50,50,0,0,1,1083,51.77a2.77,2.77,0,0,0-.38,1.11c0,.31.29.81.63.47s.3-.94.4-1.25c.36-1.07.78-2.11,1.17-3.17C1085.08,48.33,1085.3,47.72,1085.48,47.1Z" style="fill:#ffd345"/><path d="M1080.55,64.78c2-1.56,2.69-4.25,2.83-6.76s-.13-5.08.42-7.54c-.58,1-1.76,1.48-2.72,2.16a11,11,0,0,0-3.07,3.88,10.09,10.09,0,0,0-1.53,5.15,5.75,5.75,0,0,0,1.2,3.29C1078.5,65.93,1079.63,65.5,1080.55,64.78Z" style="fill:#ffd345"/><path d="M1081.11,52.64a17.32,17.32,0,0,0,2.27-1.58,43.09,43.09,0,0,1-3.58,4.43,12,12,0,0,0-2,4,4.92,4.92,0,0,0-.19,2.22,2.28,2.28,0,0,0,1.29,1.72,2.33,2.33,0,0,0,2.3-.48,5.57,5.57,0,0,0,1.4-2c.24-.5.46-1,.65-1.53a8.08,8.08,0,0,1-2.69,5.38c-.91.72-2,1.16-2.87.18a5.75,5.75,0,0,1-1.2-3.29,10.19,10.19,0,0,1,1.53-5.15A10.94,10.94,0,0,1,1081.11,52.64Z" style="fill:#ecb73f"/><path d="M1080.74,63.47a10.6,10.6,0,0,0,1.5-4.57,9.47,9.47,0,0,1-2,4.05,4,4,0,0,1-1.94,1.46,6.37,6.37,0,0,0,2.1-3.4,4.47,4.47,0,0,1-1.14,1.71c-.36.28-.8.44-1.14.75a.72.72,0,0,0-.26.46.65.65,0,0,0,.25.47,1.61,1.61,0,0,0,1.57.33.76.76,0,0,0,.51-.46C1080.34,64,1080.57,63.75,1080.74,63.47Z" style="fill:#ecb73f"/><g style="opacity:0.46"><path d="M1083,58a1,1,0,0,1-.27.46.49.49,0,0,1-.5.11.56.56,0,0,1-.25-.31,2.38,2.38,0,0,1,.06-1.42,8.74,8.74,0,0,0,.22-1.76,2,2,0,0,1,.09-.64.55.55,0,0,1,.51-.34,2.6,2.6,0,0,1,0,.88,7.46,7.46,0,0,0,.1,1A4.67,4.67,0,0,1,1083,58Z" style="fill:#fff"/></g><path d="M1076,48.65c0-.65,0-1.31,0-2,0-.47.1-.93.13-1.39a10.64,10.64,0,0,0-.16-2.7.59.59,0,0,0-.11.43A49.89,49.89,0,0,1,1075,53.8a2.74,2.74,0,0,0-.07,1.17c.08.31.5.71.74.29a3.87,3.87,0,0,0,0-1.32c0-1.12.18-2.24.27-3.37Q1076,49.61,1076,48.65Z" style="fill:#ffd345"/><path d="M1076.1,67c1.48-2,1.43-4.82.88-7.28s-1.51-4.85-1.64-7.36c-.29,1.13-1.3,1.9-2,2.81a11,11,0,0,0-1.91,4.57,10.14,10.14,0,0,0-.06,5.38,5.65,5.65,0,0,0,2.05,2.83C1074.44,68.67,1075.41,67.94,1076.1,67Z" style="fill:#ffd345"/><path d="M1073.33,55.17a16.8,16.8,0,0,0,1.76-2.14,43.49,43.49,0,0,1-2.24,5.23,12,12,0,0,0-.83,4.38,5.09,5.09,0,0,0,.42,2.19,2.27,2.27,0,0,0,1.71,1.31,2.32,2.32,0,0,0,2.08-1.09,5.69,5.69,0,0,0,.81-2.32c.09-.54.16-1.1.2-1.65a8.11,8.11,0,0,1-1.12,5.91c-.69.94-1.66,1.67-2.71,1a5.68,5.68,0,0,1-2.05-2.84,10.1,10.1,0,0,1,.06-5.37A11.11,11.11,0,0,1,1073.33,55.17Z" style="fill:#ecb73f"/><path d="M1075.93,65.68a10.52,10.52,0,0,0,.19-4.8,9.49,9.49,0,0,1-.82,4.45,4,4,0,0,1-1.47,1.93,6.42,6.42,0,0,0,1.1-3.85,4.41,4.41,0,0,1-.64,2c-.27.36-.65.64-.89,1a.68.68,0,0,0-.12.51.63.63,0,0,0,.36.39,1.63,1.63,0,0,0,1.61-.11.74.74,0,0,0,.36-.58C1075.68,66.29,1075.84,66,1075.93,65.68Z" style="fill:#ecb73f"/><g style="opacity:0.46"><path d="M1076.61,59.79a1,1,0,0,1-.12.52.48.48,0,0,1-.46.23.55.55,0,0,1-.33-.23,2.32,2.32,0,0,1-.32-1.38,8.72,8.72,0,0,0-.27-1.75,1.74,1.74,0,0,1-.08-.64.51.51,0,0,1,.39-.46,2.65,2.65,0,0,1,.26.84,7.22,7.22,0,0,0,.38,1A4.73,4.73,0,0,1,1076.61,59.79Z" style="fill:#fff"/></g><path d="M1069.12,53c-.11-.64-.24-1.28-.31-1.93,0-.47-.07-.93-.11-1.4a10.9,10.9,0,0,0-.6-2.63.58.58,0,0,0,0,.45,49.88,49.88,0,0,1,.85,10.77,2.71,2.71,0,0,0,.13,1.17c.12.29.61.61.77.16s-.14-1-.17-1.31c-.14-1.11-.2-2.24-.3-3.36C1069.28,54.24,1069.22,53.6,1069.12,53Z" style="fill:#ffd345"/><path d="M1072.21,71.05c1.13-2.25.61-5-.33-7.32s-2.29-4.53-2.83-7c-.1,1.16-1,2.09-1.54,3.11a10.91,10.91,0,0,0-1.13,4.82,10.09,10.09,0,0,0,.82,5.31,5.74,5.74,0,0,0,2.49,2.46C1070.85,73,1071.68,72.09,1072.21,71.05Z" style="fill:#f4c541"/><path d="M1067.53,59.84a16.51,16.51,0,0,0,1.38-2.4,42.32,42.32,0,0,1-1.35,5.53,11.94,11.94,0,0,0-.09,4.46,5,5,0,0,0,.77,2.09,2.32,2.32,0,0,0,1.9,1,2.36,2.36,0,0,0,1.88-1.42,5.7,5.7,0,0,0,.41-2.42c0-.56,0-1.11-.07-1.66a8.14,8.14,0,0,1-.13,6c-.53,1-1.36,1.92-2.52,1.39a5.69,5.69,0,0,1-2.49-2.46,10.19,10.19,0,0,1-.82-5.31A10.91,10.91,0,0,1,1067.53,59.84Z" style="fill:#ecb73f"/><path d="M1071.82,69.78a10.56,10.56,0,0,0-.59-4.76,9.43,9.43,0,0,1-.09,4.51,3.91,3.91,0,0,1-1.13,2.15,6.32,6.32,0,0,0,.45-4,4.36,4.36,0,0,1-.3,2c-.21.41-.54.74-.71,1.16a.7.7,0,0,0,0,.53.64.64,0,0,0,.43.32,1.6,1.6,0,0,0,1.56-.37.73.73,0,0,0,.26-.63C1071.68,70.43,1071.79,70.11,1071.82,69.78Z" style="fill:#ecb73f"/><g style="opacity:0.46"><path d="M1071.52,63.85a1,1,0,0,1,0,.54.48.48,0,0,1-.41.3.53.53,0,0,1-.37-.17,2.37,2.37,0,0,1-.54-1.31,10,10,0,0,0-.55-1.68,1.54,1.54,0,0,1-.19-.62.52.52,0,0,1,.31-.52,2.67,2.67,0,0,1,.4.79,6.84,6.84,0,0,0,.53.9A4.61,4.61,0,0,1,1071.52,63.85Z" style="fill:#fff"/></g><path d="M1065.05,56.52c-.1-.65-.24-1.29-.31-1.94,0-.46-.06-.93-.11-1.39a10.24,10.24,0,0,0-.59-2.63.56.56,0,0,0,0,.44,49.35,49.35,0,0,1,.85,10.78,2.83,2.83,0,0,0,.13,1.16c.12.29.61.61.77.16s-.13-1-.17-1.3c-.14-1.12-.2-2.25-.3-3.37C1065.22,57.79,1065.15,57.15,1065.05,56.52Z" style="fill:#ffd345"/><path d="M1068.14,74.6c1.13-2.25.62-5-.33-7.32s-2.28-4.53-2.83-7c-.1,1.17-1,2.09-1.54,3.11a11,11,0,0,0-1.13,4.82,10.18,10.18,0,0,0,.82,5.31,5.69,5.69,0,0,0,2.49,2.46C1066.78,76.53,1067.62,75.65,1068.14,74.6Z" style="fill:#ffd345"/><path d="M1063.46,63.39a16.42,16.42,0,0,0,1.38-2.39,42.44,42.44,0,0,1-1.34,5.52,11.75,11.75,0,0,0-.1,4.46,5,5,0,0,0,.78,2.09,2.28,2.28,0,0,0,1.9,1,2.35,2.35,0,0,0,1.88-1.42,5.64,5.64,0,0,0,.4-2.42c0-.55,0-1.11-.06-1.66a8.17,8.17,0,0,1-.14,6c-.52,1-1.36,1.92-2.52,1.38a5.6,5.6,0,0,1-2.48-2.45,10,10,0,0,1-.82-5.31A10.94,10.94,0,0,1,1063.46,63.39Z" style="fill:#ecb73f"/><path d="M1067.76,73.34a10.75,10.75,0,0,0-.6-4.77,9.47,9.47,0,0,1-.08,4.52,3.93,3.93,0,0,1-1.14,2.14,6.3,6.3,0,0,0,.46-4,4.4,4.4,0,0,1-.31,2c-.2.4-.53.74-.71,1.16a.63.63,0,0,0,0,.52.67.67,0,0,0,.42.33,1.6,1.6,0,0,0,1.56-.38.72.72,0,0,0,.27-.63C1067.62,74,1067.72,73.66,1067.76,73.34Z" style="fill:#ecb73f"/><g style="opacity:0.46"><path d="M1067.46,67.41a1,1,0,0,1,0,.53.49.49,0,0,1-.41.31.56.56,0,0,1-.36-.17,2.42,2.42,0,0,1-.55-1.31,8.93,8.93,0,0,0-.55-1.68,1.72,1.72,0,0,1-.19-.62.5.5,0,0,1,.31-.52,2.51,2.51,0,0,1,.4.78,7.33,7.33,0,0,0,.53.9A4.75,4.75,0,0,1,1067.46,67.41Z" style="fill:#fff"/></g><path d="M1060.9,59.9c-.11-.65-.24-1.29-.31-1.94,0-.46-.06-.93-.11-1.39a11.34,11.34,0,0,0-.59-2.64.54.54,0,0,0-.05.45,49.35,49.35,0,0,1,.85,10.78,2.67,2.67,0,0,0,.13,1.16c.12.29.61.61.77.16s-.13-1-.17-1.3c-.14-1.12-.2-2.25-.3-3.37C1061.07,61.17,1061,60.53,1060.9,59.9Z" style="fill:#ffd345"/><path d="M1064,78c1.13-2.25.61-5-.33-7.32s-2.28-4.53-2.83-7c-.1,1.16-1,2.09-1.54,3.11a11,11,0,0,0-1.13,4.82,10.19,10.19,0,0,0,.82,5.31,5.74,5.74,0,0,0,2.49,2.46C1062.63,79.9,1063.47,79,1064,78Z" style="fill:#ffd345"/><path d="M1059.31,66.77a16.51,16.51,0,0,0,1.38-2.4,40.33,40.33,0,0,1-1.35,5.53,12,12,0,0,0-.09,4.46,5,5,0,0,0,.77,2.09,2.1,2.1,0,0,0,3.78-.41,5.55,5.55,0,0,0,.41-2.42c0-.55,0-1.11-.06-1.66a8.14,8.14,0,0,1-.14,6c-.52,1-1.36,1.93-2.52,1.39A5.69,5.69,0,0,1,1059,76.9a10.19,10.19,0,0,1-.82-5.31A11,11,0,0,1,1059.31,66.77Z" style="fill:#ecb73f"/><path d="M1063.6,76.71A10.56,10.56,0,0,0,1063,72a9.47,9.47,0,0,1-.08,4.52,4,4,0,0,1-1.14,2.14,6.24,6.24,0,0,0,.45-4,4.34,4.34,0,0,1-.3,2c-.2.41-.53.74-.71,1.16a.66.66,0,0,0,0,.53.64.64,0,0,0,.42.33,1.63,1.63,0,0,0,1.56-.38.76.76,0,0,0,.27-.63C1063.47,77.36,1063.57,77,1063.6,76.71Z" style="fill:#ecb73f"/><g style="opacity:0.46"><path d="M1063.31,70.79a1.07,1.07,0,0,1,0,.53.48.48,0,0,1-.41.3.54.54,0,0,1-.37-.16,2.44,2.44,0,0,1-.54-1.32,9.17,9.17,0,0,0-.55-1.68,1.67,1.67,0,0,1-.19-.61.52.52,0,0,1,.31-.53,2.8,2.8,0,0,1,.4.79,8.16,8.16,0,0,0,.53.9A4.75,4.75,0,0,1,1063.31,70.79Z" style="fill:#fff"/></g><path d="M1056.84,64c-.1-.65-.24-1.29-.3-1.94,0-.47-.07-.93-.11-1.4a10.9,10.9,0,0,0-.6-2.63.58.58,0,0,0,0,.45,49.93,49.93,0,0,1,.85,10.77,2.71,2.71,0,0,0,.12,1.17c.13.29.62.61.78.16s-.14-1-.18-1.3c-.13-1.12-.19-2.25-.29-3.37C1057,65.24,1056.94,64.6,1056.84,64Z" style="fill:#ffd345"/><path d="M1059.93,82.05c1.13-2.25.62-5-.32-7.32s-2.29-4.53-2.83-7c-.1,1.16-1,2.09-1.54,3.11a10.91,10.91,0,0,0-1.13,4.82,10.09,10.09,0,0,0,.82,5.31,5.74,5.74,0,0,0,2.49,2.46C1058.57,84,1059.41,83.09,1059.93,82.05Z" style="fill:#f4c541"/><path d="M1055.26,70.84a16.51,16.51,0,0,0,1.38-2.4,42.32,42.32,0,0,1-1.35,5.53,11.94,11.94,0,0,0-.09,4.46,5,5,0,0,0,.77,2.09,2.3,2.3,0,0,0,1.9,1,2.37,2.37,0,0,0,1.88-1.42,5.7,5.7,0,0,0,.41-2.42c0-.56,0-1.11-.07-1.66a8.09,8.09,0,0,1-.14,6c-.52,1-1.36,1.93-2.51,1.39A5.69,5.69,0,0,1,1055,81a10.09,10.09,0,0,1-.82-5.31A10.91,10.91,0,0,1,1055.26,70.84Z" style="fill:#ecb73f"/><path d="M1059.55,80.78A10.57,10.57,0,0,0,1059,76a9.31,9.31,0,0,1-.08,4.51,4,4,0,0,1-1.13,2.15,6.39,6.39,0,0,0,.45-4,4.36,4.36,0,0,1-.3,2c-.21.41-.54.74-.71,1.16a.57.57,0,0,0,.38.86,1.64,1.64,0,0,0,1.57-.38.73.73,0,0,0,.26-.63C1059.41,81.43,1059.51,81.11,1059.55,80.78Z" style="fill:#ecb73f"/><g style="opacity:0.46"><path d="M1059.25,74.85a1,1,0,0,1,0,.54.45.45,0,0,1-.4.3.53.53,0,0,1-.37-.17,2.46,2.46,0,0,1-.55-1.31,9.13,9.13,0,0,0-.54-1.68,1.54,1.54,0,0,1-.19-.62.52.52,0,0,1,.3-.52,2.45,2.45,0,0,1,.4.79,8.16,8.16,0,0,0,.53.9A4.63,4.63,0,0,1,1059.25,74.85Z" style="fill:#fff"/></g><path d="M1053.23,68.54c-.1-.64-.24-1.28-.3-1.94,0-.46-.07-.92-.11-1.39a10.79,10.79,0,0,0-.6-2.63.57.57,0,0,0,0,.45A49.83,49.83,0,0,1,1053,73.8a2.66,2.66,0,0,0,.12,1.16c.13.29.62.62.78.16s-.14-1-.18-1.3c-.13-1.12-.19-2.24-.29-3.37C1053.4,69.82,1053.33,69.18,1053.23,68.54Z" style="fill:#ffd345"/><path d="M1056.32,86.63c1.13-2.25.62-5-.32-7.32s-2.29-4.54-2.83-7c-.1,1.17-1,2.09-1.54,3.11a11,11,0,0,0-1.13,4.83,10.09,10.09,0,0,0,.82,5.31,5.74,5.74,0,0,0,2.49,2.46C1055,88.55,1055.8,87.67,1056.32,86.63Z" style="fill:#f4c541"/><path d="M1051.65,75.42A17.06,17.06,0,0,0,1053,73a42.32,42.32,0,0,1-1.35,5.53,11.9,11.9,0,0,0-.09,4.45,4.94,4.94,0,0,0,.77,2.09,2.29,2.29,0,0,0,1.9,1,2.37,2.37,0,0,0,1.88-1.42,5.7,5.7,0,0,0,.41-2.42c0-.56,0-1.11-.07-1.67a8.12,8.12,0,0,1-.14,6c-.52,1-1.36,1.92-2.51,1.39a5.74,5.74,0,0,1-2.49-2.46,10.09,10.09,0,0,1-.82-5.31A10.91,10.91,0,0,1,1051.65,75.42Z" style="fill:#ecb73f"/><path d="M1055.94,85.36a10.61,10.61,0,0,0-.6-4.77,9.35,9.35,0,0,1-.08,4.52,4,4,0,0,1-1.13,2.15,6.39,6.39,0,0,0,.45-4,4.36,4.36,0,0,1-.3,2c-.21.4-.54.74-.71,1.16a.7.7,0,0,0,0,.53.72.72,0,0,0,.42.32,1.62,1.62,0,0,0,1.57-.37.73.73,0,0,0,.26-.63C1055.8,86,1055.9,85.69,1055.94,85.36Z" style="fill:#ecb73f"/><g style="opacity:0.46"><path d="M1055.64,79.43a1,1,0,0,1,0,.53.46.46,0,0,1-.4.31.53.53,0,0,1-.37-.17,2.49,2.49,0,0,1-.55-1.31,8.9,8.9,0,0,0-.54-1.68,1.54,1.54,0,0,1-.19-.62.52.52,0,0,1,.3-.52,2.51,2.51,0,0,1,.4.78,7.33,7.33,0,0,0,.53.9A4.67,4.67,0,0,1,1055.64,79.43Z" style="fill:#fff"/></g><path d="M1049.12,72.49c-.1-.64-.23-1.29-.3-1.94,0-.46-.07-.93-.11-1.39a10.79,10.79,0,0,0-.6-2.63.55.55,0,0,0,0,.44,50,50,0,0,1,.85,10.78,2.67,2.67,0,0,0,.13,1.16c.12.29.61.62.77.16s-.14-1-.18-1.3c-.13-1.12-.19-2.24-.29-3.37C1049.29,73.76,1049.22,73.13,1049.12,72.49Z" style="fill:#ffd345"/><path d="M1052.22,90.58c1.12-2.26.61-5-.33-7.33s-2.29-4.53-2.83-7c-.1,1.17-1,2.09-1.54,3.11a11,11,0,0,0-1.13,4.83,10.09,10.09,0,0,0,.82,5.31A5.67,5.67,0,0,0,1049.7,92C1050.85,92.5,1051.69,91.62,1052.22,90.58Z" style="fill:#ffd345"/><path d="M1047.54,79.36a16.42,16.42,0,0,0,1.38-2.39,42.75,42.75,0,0,1-1.35,5.53,11.9,11.9,0,0,0-.09,4.45,4.94,4.94,0,0,0,.77,2.09,2.26,2.26,0,0,0,1.9,1,2.32,2.32,0,0,0,1.88-1.42,5.62,5.62,0,0,0,.41-2.41c0-.56,0-1.11-.07-1.67a8.17,8.17,0,0,1-.13,6c-.53,1-1.36,1.92-2.52,1.39a5.74,5.74,0,0,1-2.49-2.46,10.09,10.09,0,0,1-.82-5.31A11,11,0,0,1,1047.54,79.36Z" style="fill:#ecb73f"/><path d="M1051.83,89.31a10.75,10.75,0,0,0-.59-4.77,9.47,9.47,0,0,1-.09,4.52,4,4,0,0,1-1.13,2.15,6.41,6.41,0,0,0,.45-4,4.38,4.38,0,0,1-.3,2c-.21.4-.54.74-.71,1.16a.7.7,0,0,0,0,.53.71.71,0,0,0,.43.32,1.59,1.59,0,0,0,1.56-.38.71.71,0,0,0,.26-.63C1051.69,90,1051.8,89.63,1051.83,89.31Z" style="fill:#ecb73f"/><g style="opacity:0.46"><path d="M1051.53,83.38a1,1,0,0,1,0,.53.47.47,0,0,1-.41.31.58.58,0,0,1-.37-.17,2.41,2.41,0,0,1-.54-1.31,9.71,9.71,0,0,0-.55-1.68,1.54,1.54,0,0,1-.19-.62.51.51,0,0,1,.31-.52,3,3,0,0,1,.4.78,5.45,5.45,0,0,0,.53.9A4.65,4.65,0,0,1,1051.53,83.38Z" style="fill:#fff"/></g><path d="M1045.88,77.77c-.1-.65-.24-1.29-.31-1.94,0-.47-.06-.93-.1-1.39a10.87,10.87,0,0,0-.6-2.64.58.58,0,0,0,0,.45,49.93,49.93,0,0,1,.85,10.77,2.71,2.71,0,0,0,.12,1.17c.13.29.62.61.78.16s-.14-1-.18-1.3c-.13-1.12-.19-2.25-.29-3.37C1046.05,79,1046,78.4,1045.88,77.77Z" style="fill:#ffd345"/><path d="M1049,95.85c1.13-2.25.62-5-.32-7.32s-2.29-4.53-2.84-7c-.09,1.16-1,2.09-1.53,3.11a10.91,10.91,0,0,0-1.13,4.82,10.09,10.09,0,0,0,.82,5.31,5.74,5.74,0,0,0,2.49,2.46C1047.61,97.77,1048.45,96.89,1049,95.85Z" style="fill:#ffd345"/><path d="M1044.3,84.64a16.51,16.51,0,0,0,1.38-2.4,42.32,42.32,0,0,1-1.35,5.53,11.94,11.94,0,0,0-.09,4.46,4.85,4.85,0,0,0,.77,2.09,2.3,2.3,0,0,0,1.9,1,2.36,2.36,0,0,0,1.88-1.42,5.7,5.7,0,0,0,.41-2.42c0-.56,0-1.11-.07-1.66a8.09,8.09,0,0,1-.14,6c-.52,1-1.36,1.93-2.51,1.39a5.69,5.69,0,0,1-2.49-2.46,10.09,10.09,0,0,1-.82-5.31A10.91,10.91,0,0,1,1044.3,84.64Z" style="fill:#ecb73f"/><path d="M1048.59,94.58a10.57,10.57,0,0,0-.6-4.76,9.31,9.31,0,0,1-.08,4.51,4,4,0,0,1-1.13,2.15,6.39,6.39,0,0,0,.45-4,4.36,4.36,0,0,1-.3,2c-.21.41-.54.74-.71,1.16a.57.57,0,0,0,.38.86,1.64,1.64,0,0,0,1.57-.38.73.73,0,0,0,.26-.63C1048.45,95.23,1048.55,94.91,1048.59,94.58Z" style="fill:#ecb73f"/><g style="opacity:0.46"><path d="M1048.29,88.65a1,1,0,0,1,0,.54.47.47,0,0,1-.4.3.57.57,0,0,1-.37-.16,2.53,2.53,0,0,1-.55-1.32,8.47,8.47,0,0,0-.55-1.68,1.94,1.94,0,0,1-.19-.62.55.55,0,0,1,.31-.52,2.56,2.56,0,0,1,.4.79,8.16,8.16,0,0,0,.53.9A4.63,4.63,0,0,1,1048.29,88.65Z" style="fill:#fff"/></g><polygon points="1031.61 124.31 1033.15 121.15 1034.18 124.31 1032.89 129.68 1031.61 124.31" style="fill:#e0ab3d"/><polygon points="1025.06 135.27 1025.09 135.57 1025.8 143.07 1026.9 137.84 1025.5 133.95 1025.06 135.27" style="fill:#e0ab3d"/><path d="M1023.38,104.35c-.08.22,0,3.93,0,3.93l1.61,1.56-.35-4.27Z" style="fill:#e0ab3d"/></g></g></svg>